#N canvas 499 305 1335 698 10;
#X obj 129 130 *~;
#X obj 90 51 osc~ 440;
#X obj 129 304 *~ 0.1;
#X obj 177 53 osc~ 526;
#X obj 61 233 osc~ 722;
#X obj 18 268 osc~ 831;
#X text 173 126 <- ordering doesn't matter;
#X text 200 294 <- sum signals;
#X floatatom 832 65 5 0 0 0 - - -, f 5;
#X floatatom 883 65 5 0 0 0 - - -, f 5;
#X obj 851 141 +;
#X floatatom 900 190 5 0 0 0 - - -, f 5;
#X obj 851 302 * 10;
#X floatatom 851 343 5 0 0 0 - - -, f 5;
#X floatatom 797 244 5 0 0 0 - - -, f 5;
#X floatatom 769 269 5 0 0 0 - - -, f 5;
#X text 585 139 hot input will trigger output(s) ->;
#X text 896 134 <- cold input(s) won't trigger output(s);
#X text 864 282 <- all events are processed;
#X msg 832 406 10 37 42;
#X obj 832 463 unpack f f f;
#X obj 833 551 +;
#X obj 833 597 pack f f;
#X obj 833 653 print;
#X text 917 406 <- a message is a vector or values (click to trigger)
;
#X text 937 466 <- values are triggered from right to left;
#X text 920 592 <- packing from right to left (from cold inputs to
hot input), f 32;
#X text 890 657 <- display to the PD console;
#X text 676 553 correct sum order ->;
#X obj 128 405 ../oscilloscope;
#X obj 504 402 *~ 0;
#X obj 504 424 dac~;
#X obj 529 360 tgl 15 0 empty empty empty 17 7 0 10 -262144 -1 -1 0
1;
#X text 127 9 SIGNAL FLOW (with tilde ~);
#X text 838 14 MESSAGE FLOW (without tilde ~);
#X connect 0 0 2 0;
#X connect 1 0 0 0;
#X connect 2 0 29 0;
#X connect 2 0 30 0;
#X connect 3 0 0 1;
#X connect 4 0 2 0;
#X connect 5 0 2 0;
#X connect 8 0 10 0;
#X connect 9 0 10 1;
#X connect 10 0 11 0;
#X connect 10 0 12 0;
#X connect 12 0 13 0;
#X connect 14 0 12 0;
#X connect 15 0 12 0;
#X connect 19 0 20 0;
#X connect 20 0 21 0;
#X connect 20 1 21 1;
#X connect 20 2 22 1;
#X connect 21 0 22 0;
#X connect 22 0 23 0;
#X connect 30 0 31 0;
#X connect 30 0 31 1;
#X connect 32 0 30 1;
