#N canvas 564 286 402 292 10;
#X obj 163 61 osc~ 440;
#X obj 9 9 tgl 15 0 empty empty empty 17 7 0 10 -262144 -1 -1 0 1;
#X obj 9 29 switch~;
#X obj 163 187 *~ 0.2;
#X obj 163 252 dac~;
#X obj 163 148 *~;
#X obj 182 102 osc~ 1;
#X connect 0 0 5 0;
#X connect 1 0 2 0;
#X connect 3 0 4 0;
#X connect 3 0 4 1;
#X connect 5 0 3 0;
#X connect 6 0 5 1;
