#N canvas 561 290 402 292 10;
#X declare -path ..;
#X obj 9 9 tgl 15 0 empty empty empty 17 7 0 10 -262144 -1 -1 1 1;
#X obj 9 29 switch~;
#X obj 163 187 *~ 0.2;
#X obj 163 252 dac~;
#X obj 163 60 osc~ 440;
#X obj 164 146 *~;
#X obj 182 87 bng 15 250 50 0 empty empty empty 17 7 0 10 -262144 -1
-1;
#X obj 280 4 declare -path ..;
#X obj 182 121 ad~ 10 500;
#X connect 0 0 1 0;
#X connect 2 0 3 0;
#X connect 2 0 3 1;
#X connect 4 0 5 0;
#X connect 5 0 2 0;
#X connect 6 0 8 0;
#X connect 8 0 5 1;
