#N canvas 499 516 450 435 10;
#X declare -path ..;
#X obj 181 22 noise~;
#X obj 67 123 *~ 10;
#X obj 290 124 *~ 5;
#X obj 175 123 *~ 8;
#X obj 67 101 bp~ 1000 440;
#X obj 175 101 bp~ 1600 580;
#X obj 290 103 bp~ 2645 580;
#X obj 171 381 dac~;
#X obj 170 341 *~ 0;
#X obj 229 336 hsl 128 15 0 1 0 0 empty empty empty -2 -8 0 10 -262144
-1 -1 0 1;
#X obj 174 294 *~;
#X obj 174 231 *~ 1;
#X obj 313 8 declare -path ..;
#X obj 231 268 ad~ 10 100;
#X obj 231 241 bng 15 250 50 0 empty empty empty 17 7 0 10 -262144
-1 -1;
#X connect 0 0 4 0;
#X connect 0 0 5 0;
#X connect 0 0 6 0;
#X connect 1 0 11 0;
#X connect 2 0 11 0;
#X connect 3 0 11 0;
#X connect 4 0 1 0;
#X connect 5 0 3 0;
#X connect 6 0 2 0;
#X connect 8 0 7 0;
#X connect 8 0 7 1;
#X connect 9 0 8 1;
#X connect 10 0 8 0;
#X connect 11 0 10 0;
#X connect 13 0 10 1;
#X connect 14 0 13 0;
