#N canvas 753 327 506 363 10;
#X msg 48 68 12 4 3;
#X obj 48 121 unpack f f f;
#X text 52 27 A * B + C;
#X obj 48 193 *;
#X obj 48 241 +;
#X floatatom 48 281 5 0 0 0 - - -, f 5;
#X text 232 28 A * A + A;
#X msg 236 67 4;
#X obj 236 117 t f f f;
#X obj 236 193 *;
#X obj 236 241 +;
#X floatatom 236 281 5 0 0 0 - - -, f 5;
#X text 393 30 Counter;
#X obj 400 137 f 0;
#X obj 448 137 + 1;
#X obj 400 71 bng 15 250 50 0 empty empty empty 17 7 0 10 -262144 -1
-1;
#X floatatom 400 197 5 0 0 0 - - -, f 5;
#X msg 465 73 0;
#X msg 427 71 0;
#X obj 382 251 f;
#X floatatom 382 290 5 0 0 0 - - -, f 5;
#X obj 366 198 bng 15 250 50 0 empty empty empty 17 7 0 10 -262144
-1 -1;
#X connect 0 0 1 0;
#X connect 1 0 3 0;
#X connect 1 1 3 1;
#X connect 1 2 4 1;
#X connect 3 0 4 0;
#X connect 4 0 5 0;
#X connect 7 0 8 0;
#X connect 8 0 9 0;
#X connect 8 1 9 1;
#X connect 8 2 10 1;
#X connect 9 0 10 0;
#X connect 10 0 11 0;
#X connect 13 0 14 0;
#X connect 13 0 16 0;
#X connect 14 0 13 1;
#X connect 15 0 13 0;
#X connect 16 0 19 1;
#X connect 17 0 13 1;
#X connect 18 0 13 0;
#X connect 19 0 20 0;
#X connect 21 0 19 0;
