#N canvas 550 394 450 300 10;
#X obj 92 49 inlet;
#X obj 242 49 inlet;
#X obj 127 263 outlet;
#X obj 242 82 unpack f f f;
#X obj 96 89 unpack f f f;
#X obj 127 191 pack f f f;
#X obj 106 145 +;
#X obj 154 146 +;
#X obj 203 145 +;
#X connect 0 0 4 0;
#X connect 1 0 3 0;
#X connect 3 0 6 1;
#X connect 3 1 7 1;
#X connect 3 2 8 1;
#X connect 4 0 6 0;
#X connect 4 1 7 0;
#X connect 4 2 8 0;
#X connect 5 0 2 0;
#X connect 6 0 5 0;
#X connect 7 0 5 1;
#X connect 8 0 5 2;
