#N canvas 607 401 450 528 10;
#X obj 60 32 inlet;
#X obj 247 36 inlet;
#X obj 60 424 outlet;
#X obj 247 95 unpack f f f;
#X obj 92 95 unpack f f f;
#X obj 87 241 *;
#X obj 87 274 -;
#X obj 121 241 *;
#X obj 60 352 pack 0 f f f;
#X obj 60 388 route 0;
#X obj 60 65 t b a;
#X obj 202 241 *;
#X obj 179 270 -;
#X obj 171 243 *;
#X obj 269 242 *;
#X obj 269 271 -;
#X obj 299 242 *;
#X obj 179 292 * -1;
#X connect 0 0 10 0;
#X connect 1 0 3 0;
#X connect 3 0 11 1;
#X connect 3 0 16 1;
#X connect 3 1 7 1;
#X connect 3 1 14 1;
#X connect 3 2 5 1;
#X connect 3 2 13 1;
#X connect 4 0 13 0;
#X connect 4 0 14 0;
#X connect 4 1 5 0;
#X connect 4 1 16 0;
#X connect 4 2 7 0;
#X connect 4 2 11 0;
#X connect 5 0 6 0;
#X connect 6 0 8 1;
#X connect 7 0 6 1;
#X connect 8 0 9 0;
#X connect 9 0 2 0;
#X connect 10 0 8 0;
#X connect 10 1 4 0;
#X connect 11 0 12 1;
#X connect 12 0 17 0;
#X connect 13 0 12 0;
#X connect 14 0 15 0;
#X connect 15 0 8 3;
#X connect 16 0 15 1;
#X connect 17 0 8 2;
