#N canvas 807 310 617 662 10;
#N canvas 0 50 450 250 (subpatch) 0;
#X array array1 515 float 2;
#X coords 0 1 515 -1 200 140 1;
#X restore 225 205 graph;
#X obj 46 59 hsl 128 15 100 10000 1 0 empty empty empty -2 -8 0 10
-262144 -1 -1 0 1;
#X floatatom 62 82 5 0 0 0 - - -, f 5;
#X obj 43 150 sig~;
#X obj 43 254 *~ 0.1;
#X obj 43 310 dac~;
#X obj 44 210 tabosc4~ array1;
#X msg 225 101 \; array1 sinesum 512 0.2 0.1 0.33 0.1 0.45 0.12 0.11
\;;
#X obj 268 22 tgl 15 0 empty empty empty 17 7 0 10 -262144 -1 -1 0
1;
#X obj 268 42 switch~;
#X connect 1 0 2 0;
#X connect 1 0 3 0;
#X connect 3 0 6 0;
#X connect 4 0 5 0;
#X connect 4 0 5 1;
#X connect 6 0 4 0;
#X connect 8 0 9 0;
