#N canvas 625 278 673 362 10;
#X obj 242 20 noise~;
#X obj 128 121 *~ 10;
#X obj 232 254 *~ 0;
#X obj 294 224 hsl 128 15 0 1 0 0 empty empty empty -2 -8 0 10 -262144
-1 -1 0 1;
#X obj 232 290 dac~;
#X obj 351 122 *~ 5;
#X obj 236 121 *~ 8;
#X obj 128 99 bp~ 1000 440;
#X obj 236 99 bp~ 1600 580;
#X obj 351 101 bp~ 2645 580;
#X connect 0 0 7 0;
#X connect 0 0 8 0;
#X connect 0 0 9 0;
#X connect 1 0 2 0;
#X connect 2 0 4 0;
#X connect 2 0 4 1;
#X connect 3 0 2 1;
#X connect 5 0 2 0;
#X connect 6 0 2 0;
#X connect 7 0 1 0;
#X connect 8 0 6 0;
#X connect 9 0 5 0;
