#N canvas 618 320 558 357 10;
#X obj 81 21 noise~;
#X obj 82 133 *~;
#X obj 255 319 dac~;
#X obj 131 74 line~;
#X obj 256 269 *~ 0;
#X obj 284 245 hsl 128 15 0 1 0 0 empty empty empty -2 -8 0 10 -262144
-1 -1 5100 1;
#X msg 131 52 1 \, 0 500;
#X obj 323 20 noise~;
#X obj 324 132 *~;
#X obj 373 73 vline~;
#X msg 373 51 1 100 \, 0 1500 300;
#X connect 0 0 1 0;
#X connect 1 0 4 0;
#X connect 3 0 1 1;
#X connect 4 0 2 0;
#X connect 4 0 2 1;
#X connect 5 0 4 1;
#X connect 6 0 3 0;
#X connect 7 0 8 0;
#X connect 8 0 4 0;
#X connect 9 0 8 1;
#X connect 10 0 9 0;
