#N canvas 1113 367 662 420 10;
#X obj 81 64 noise~;
#X obj 82 176 *~;
#X obj 363 383 dac~;
#X obj 131 117 line~;
#X obj 364 333 *~ 0;
#X obj 392 309 hsl 128 15 0 1 0 0 empty empty empty -2 -8 0 10 -262144
-1 -1 9700 1;
#X obj 131 30 tgl 15 0 empty empty empty 17 7 0 10 -262144 -1 -1 0
1;
#X obj 131 50 metro 100;
#X msg 131 95 1 \, 0 50;
#X obj 349 62 noise~;
#X obj 350 174 *~;
#X obj 399 115 line~;
#X obj 399 28 tgl 15 0 empty empty empty 17 7 0 10 -262144 -1 -1 1
1;
#X obj 399 48 metro 100;
#X msg 399 93 1 \, 0 50;
#X obj 491 98 random 500;
#X obj 491 120 + 500;
#X obj 364 211 bp~ 1000 2;
#X connect 0 0 1 0;
#X connect 1 0 4 0;
#X connect 3 0 1 1;
#X connect 4 0 2 0;
#X connect 4 0 2 1;
#X connect 5 0 4 1;
#X connect 6 0 7 0;
#X connect 7 0 8 0;
#X connect 8 0 3 0;
#X connect 9 0 10 0;
#X connect 10 0 17 0;
#X connect 11 0 10 1;
#X connect 12 0 13 0;
#X connect 13 0 14 0;
#X connect 13 0 15 0;
#X connect 14 0 11 0;
#X connect 15 0 16 0;
#X connect 16 0 17 1;
#X connect 17 0 4 0;
