#N canvas 675 275 768 385 10;
#X obj 86 213 dac~;
#X obj 83 100 readsf~ 2;
#X msg 83 51 1;
#X msg 126 53 0;
#X obj 325 84 soundfiler;
#X obj 589 88 array define foots-l;
#X obj 589 108 array define foots-r;
#X obj 240 148 print samples;
#X obj 298 307 tabread4~ foots-l;
#X obj 430 306 tabread4~ foots-r;
#X obj 404 355 dac~;
#X obj 388 248 phasor~;
#X obj 388 270 *~ 0;
#X obj 381 110 / 24000;
#X obj 388 141 swap 1;
#X obj 388 169 /;
#X obj 397 202 sig~ 1;
#X obj 397 224 *~ 1;
#X obj 489 170 hsl 128 15 0 4 0 0 empty empty empty -2 -8 0 10 -262144
-1 -1 0 1;
#X floatatom 486 190 5 0 0 0 - - -, f 5;
#X msg 17 25 open foots-stereo.wav;
#X msg 325 24 read -resize foots-stereo.wav foots-l foots-r;
#X connect 1 0 0 0;
#X connect 1 1 0 1;
#X connect 2 0 1 0;
#X connect 3 0 1 0;
#X connect 4 0 7 0;
#X connect 4 0 13 0;
#X connect 4 0 12 1;
#X connect 8 0 10 0;
#X connect 9 0 10 1;
#X connect 11 0 12 0;
#X connect 12 0 8 0;
#X connect 12 0 9 0;
#X connect 13 0 14 0;
#X connect 14 0 15 0;
#X connect 14 1 15 1;
#X connect 15 0 16 0;
#X connect 16 0 17 0;
#X connect 17 0 11 0;
#X connect 18 0 19 0;
#X connect 19 0 17 1;
#X connect 20 0 1 0;
#X connect 21 0 4 0;
