#N canvas 638 244 450 506 10;
#X obj 139 361 sampler1~ foots;
#X msg 32 69 load foots-mono.wav 48000;
#X obj 139 434 dac~;
#X msg 111 140 play 2.122 2.5 1;
#X obj 279 38 hsl 128 15 0 10 0 0 empty empty empty -2 -8 0 10 -262144
-1 -1 0 1;
#X floatatom 276 67 5 0 0 0 - - -, f 5;
#X obj 276 104 vmetro;
#X obj 276 126 random 1000;
#X obj 276 170 - 1;
#X obj 276 148 / 500;
#X obj 276 192 * 0.2;
#X obj 276 214 + 1;
#X msg 276 244 play 2.122 2.5 \$1;
#X obj 32 24 loadbang;
#X connect 0 0 2 0;
#X connect 0 0 2 1;
#X connect 1 0 0 0;
#X connect 3 0 0 0;
#X connect 4 0 5 0;
#X connect 5 0 6 0;
#X connect 6 0 7 0;
#X connect 7 0 9 0;
#X connect 8 0 10 0;
#X connect 9 0 8 0;
#X connect 10 0 11 0;
#X connect 11 0 12 0;
#X connect 12 0 0 0;
#X connect 13 0 1 0;
