#N canvas 740 286 498 465 10;
#X obj 296 61 hsl 128 15 -100 100 0 0 empty empty empty -2 -8 0 10
-262144 -1 -1 8300 1;
#X floatatom 293 83 5 0 0 0 - - -, f 5;
#X obj 293 102 s altitude;
#X obj 69 229 r altitude;
#X obj 44 7 noise~;
#X obj 45 361 *~ 0.5;
#X obj 44 404 dac~;
#X obj 67 53 noise~;
#X obj 67 119 +~ 1000;
#X obj 68 75 lop~ 0.3;
#X obj 67 97 *~ 11110;
#X obj 43 152 vcf~ 30;
#X obj 44 327 *~ 0;
#X obj 69 251 - 20;
#X obj 69 273 / 30;
#X obj 69 295 clip 0 1;
#X obj 43 174 *~ 4;
#X connect 0 0 1 0;
#X connect 1 0 2 0;
#X connect 3 0 13 0;
#X connect 4 0 11 0;
#X connect 5 0 6 0;
#X connect 5 0 6 1;
#X connect 7 0 9 0;
#X connect 8 0 11 1;
#X connect 9 0 10 0;
#X connect 10 0 8 0;
#X connect 11 0 16 0;
#X connect 12 0 5 0;
#X connect 13 0 14 0;
#X connect 14 0 15 0;
#X connect 15 0 12 1;
#X connect 16 0 12 0;
