#N canvas 703 553 450 300 10;
#X obj 110 31 inlet;
#X obj 110 53 bang;
#X obj 110 119 vline~;
#X obj 110 141 outlet~;
#X obj 110 75 pack \$1 \$2;
#X msg 110 97 1 \$1 \, 0 \$2 \$1;
#X connect 0 0 1 0;
#X connect 1 0 4 0;
#X connect 2 0 3 0;
#X connect 4 0 5 0;
#X connect 5 0 2 0;
