#N canvas 694 565 450 300 10;
#X obj 110 51 inlet;
#X obj 110 73 bang;
#X obj 110 149 vline~;
#X obj 110 171 outlet~;
#X obj 191 25 loadbang;
#X obj 191 47 f \$1;
#X obj 191 69 + \$2;
#X msg 110 126 1 \$1 \, 0 \$2 \$3;
#X obj 110 95 pack \$1 \$3 f;
#X connect 0 0 1 0;
#X connect 1 0 8 0;
#X connect 2 0 3 0;
#X connect 4 0 5 0;
#X connect 5 0 6 0;
#X connect 6 0 8 2;
#X connect 7 0 2 0;
#X connect 8 0 7 0;
