#N canvas 1053 419 757 471 10;
#X obj 133 219 capture;
#X obj 134 44 t b b;
#X obj 134 11 bng 15 250 50 0 empty empty empty 17 7 0 10 -262144 -1
-1;
#X obj 134 114 asd~ 100 150 300;
#X connect 1 0 3 0;
#X connect 1 1 0 1;
#X connect 2 0 1 0;
#X connect 3 0 0 0;
