#N canvas 469 141 1199 919 10;
#N canvas 65 81 450 250 (subpatch) 0;
#X array osc-array-\$0 102678 float 0;
#X coords 0 1.6 102677 -1.6 200 140 2 0 0;
#X restore 152 18 graph;
#X obj 524 37 inlet~;
#X text 793 842 ticks : position \, steps \, global step multiplier
;
#X text 793 860 label : offset \, values...;
#X text 794 824 ARRAY STYLING AND BOUNDS;
#X obj 33 58 nbx 5 14 0 20000 0 0 \$0-range-s \$0-range-r Y -10 8 0
10 -262144 -1 -1 16 256;
#X obj 308 625 pack f f f;
#X obj 372 757 unpack f f f;
#X obj 419 785 * -1;
#X obj 372 811 pack f f f f;
#X msg 372 843 ylabel -10 \$3 0 \$4 \, bounds 0 \$4 \$2 \$3 \, yticks
0 0.2 5;
#X obj 307 724 t a a;
#X obj 161 847 array size osc-array-\$0;
#X obj 157 753 unpack f f f;
#X obj 372 874 s osc-array-\$0;
#X obj 179 488 unpack f f f;
#X obj 382 654 unpack f f f;
#X msg 375 696 set \$1;
#X obj 375 718 s \$0-switch-r;
#X obj 717 417 f 1;
#X obj 717 462 select 0;
#X obj 770 484 moses 0;
#X obj 717 391 / 10;
#X obj 816 512 t b f;
#X obj 698 680 * 10;
#X msg 698 702 set \$1;
#X obj 717 361 r \$0-range-s;
#X obj 698 724 s \$0-range-r;
#X obj 477 519 t b f;
#X text 730 302 Y RANGE;
#X text 467 264 X RANGE;
#X text 192 369 INIT;
#X obj 179 405 loadbang;
#X obj 523 112 tabwrite~ osc-array-\$0;
#X obj 777 40 inlet;
#X obj 418 466 select 0;
#X obj 471 488 moses 0;
#X obj 419 306 r \$0-size-s;
#X obj 419 363 t f b;
#X obj 437 394 samplerate~;
#X obj 419 420 *;
#X obj 419 443 i;
#X msg 777 62 stop \, start 0;
#X obj 33 98 nbx 5 14 1 4000 0 0 \$0-size-s \$0-size-r X -10 8 0 10
-262144 -1 -1 232.83 256;
#X obj 532 689 t f b;
#X obj 564 712 samplerate~;
#X obj 533 734 /;
#X msg 534 798 set \$1;
#X obj 535 822 s \$0-size-r;
#X text 104 622 on samples yrange;
#X msg 179 455 1 44100 1;
#X obj 420 336 / 1000;
#X obj 534 759 * 1000;
#X obj 534 779 i;
#X connect 1 0 33 0;
#X connect 6 0 11 0;
#X connect 6 0 16 0;
#X connect 7 0 9 0;
#X connect 7 1 9 1;
#X connect 7 2 8 0;
#X connect 7 2 9 3;
#X connect 8 0 9 2;
#X connect 9 0 10 0;
#X connect 10 0 14 0;
#X connect 11 0 13 0;
#X connect 11 1 7 0;
#X connect 13 1 12 0;
#X connect 15 0 6 0;
#X connect 15 1 6 1;
#X connect 15 2 6 2;
#X connect 16 0 17 0;
#X connect 16 1 44 0;
#X connect 16 2 24 0;
#X connect 17 0 18 0;
#X connect 19 0 20 0;
#X connect 20 1 21 0;
#X connect 21 1 23 0;
#X connect 22 0 19 0;
#X connect 23 0 6 0;
#X connect 23 1 6 2;
#X connect 24 0 25 0;
#X connect 25 0 27 0;
#X connect 26 0 22 0;
#X connect 28 0 6 0;
#X connect 28 1 6 1;
#X connect 32 0 50 0;
#X connect 34 0 42 0;
#X connect 35 1 36 0;
#X connect 36 1 28 0;
#X connect 37 0 51 0;
#X connect 38 0 40 0;
#X connect 38 1 39 0;
#X connect 39 0 40 1;
#X connect 40 0 41 0;
#X connect 41 0 35 0;
#X connect 42 0 33 0;
#X connect 44 0 46 0;
#X connect 44 1 45 0;
#X connect 45 0 46 1;
#X connect 46 0 52 0;
#X connect 47 0 48 0;
#X connect 50 0 15 0;
#X connect 51 0 38 0;
#X connect 52 0 53 0;
#X connect 53 0 47 0;
#X coords 0 -1 1 1 360 170 1 0 0;
