#N canvas 512 291 714 637 10;
#X obj 35 194 sig~;
#X obj 35 216 saw~;
#X obj 85 566 outlet~;
#X obj 84 302 *~;
#X obj 129 226 +~ 1;
#X obj 129 251 /~ 2;
#X obj 129 204 sqr~ 4;
#X obj 272 19 inlet;
#X obj 273 67 unpack f f f f f;
#X obj 294 116 pack f f f;
#X obj 336 158 vec3;
#N canvas 1033 262 450 300 camera 0;
#X obj 152 47 r camera;
#X obj 152 69 unpack f f f f f f f f f;
#X obj 75 145 pack f f f;
#X obj 189 146 pack f f f;
#X obj 309 145 pack f f f;
#X obj 31 239 outlet position;
#X obj 300 245 outlet position;
#X obj 193 212 outlet direction;
#X connect 0 0 1 0;
#X connect 1 0 2 0;
#X connect 1 1 2 1;
#X connect 1 2 2 2;
#X connect 1 3 3 0;
#X connect 1 4 3 1;
#X connect 1 5 3 2;
#X connect 1 6 4 0;
#X connect 1 7 4 1;
#X connect 1 8 4 2;
#X connect 2 0 5 0;
#X connect 3 0 7 0;
#X restore 397 239 pd camera;
#X obj 295 284 vec3/sub;
#X obj 35 155 lerp 50 200;
#X obj 295 321 vec3/len;
#X obj 84 484 /~ 1;
#X obj 420 375 outlet;
#X obj 240 184 switch~;
#X obj 213 124 > 0;
#X obj 213 260 outlet;
#X obj 295 381 / 10;
#X obj 134 161 lerp 8 2;
#X obj 295 403 pow 2;
#X obj 296 432 max 1;
#X connect 0 0 1 0;
#X connect 1 0 3 0;
#X connect 3 0 15 0;
#X connect 4 0 5 0;
#X connect 5 0 3 1;
#X connect 6 0 4 0;
#X connect 7 0 8 0;
#X connect 8 0 13 0;
#X connect 8 0 18 0;
#X connect 8 0 21 0;
#X connect 8 1 9 0;
#X connect 8 2 9 1;
#X connect 8 3 9 2;
#X connect 9 0 10 0;
#X connect 9 0 12 0;
#X connect 11 0 12 1;
#X connect 12 0 14 0;
#X connect 13 0 0 0;
#X connect 14 0 16 0;
#X connect 14 0 20 0;
#X connect 15 0 2 0;
#X connect 18 0 17 0;
#X connect 18 0 19 0;
#X connect 20 0 22 0;
#X connect 21 0 6 0;
#X connect 22 0 23 0;
#X connect 23 0 15 1;
