#N canvas 710 378 313 421 10;
#X obj 84 165 spigot 1;
#X msg 113 134 0;
#X msg 151 137 1;
#X obj 52 34 inlet bang;
#X obj 116 228 delay \$1;
#X obj 84 266 outlet bang;
#X obj 209 37 inlet delay;
#X obj 52 94 t b a;
#X obj 84 196 t a b;
#X connect 0 0 8 0;
#X connect 1 0 0 1;
#X connect 2 0 0 1;
#X connect 3 0 7 0;
#X connect 4 0 2 0;
#X connect 6 0 4 1;
#X connect 7 0 1 0;
#X connect 7 1 0 0;
#X connect 8 0 5 0;
#X connect 8 1 4 0;
