#N canvas 969 243 770 556 10;
#X obj 129 161 tgl 15 0 empty empty empty 17 7 0 10 -262144 -1 -1 1
1;
#X obj 129 225 vline~;
#X obj 130 267 *~;
#X obj 32 229 noise~;
#X obj 85 321 *~;
#X msg 129 203 1 5 \, 0 30 5;
#X obj 128 181 metro 100;
#X floatatom 353 161 5 0 0 0 - - -, f 5;
#X obj 333 133 hsl 128 15 1 1000 1 0 empty empty empty -2 -8 0 10 -262144
-1 -1 12700 1;
#X obj 256 521 dac~;
#X text 89 122 source signal;
#X text 334 97 distance in meters;
#X obj 262 447 *~ 1;
#X obj 330 226 / 100;
#X obj 330 248 swap 1;
#X obj 330 270 /;
#X floatatom 352 291 5 0 0 0 - - -, f 5;
#X floatatom 342 347 7 0 0 0 - - -, f 7;
#X text 424 248 custom inverse distance to frequency cutoff :;
#X text 447 313 move toward infinity (no filter) below 100m;
#X text 446 293 move towards 0 Hz (full filter) beyond 100m;
#X obj 262 398 lop~;
#X obj 330 324 * 4000;
#X text 184 13 AIR DAMPING SIMULATION (non realistic);
#X text 445 274 4 KHz at 100m;
#X connect 0 0 6 0;
#X connect 1 0 2 0;
#X connect 1 0 2 1;
#X connect 2 0 4 1;
#X connect 3 0 4 0;
#X connect 4 0 21 0;
#X connect 5 0 1 0;
#X connect 6 0 5 0;
#X connect 8 0 7 0;
#X connect 8 0 13 0;
#X connect 12 0 9 0;
#X connect 12 0 9 1;
#X connect 13 0 14 0;
#X connect 14 0 15 0;
#X connect 14 1 15 1;
#X connect 15 0 16 0;
#X connect 15 0 22 0;
#X connect 21 0 12 0;
#X connect 22 0 17 0;
#X connect 22 0 21 1;
