#N canvas 969 243 649 556 10;
#X obj 176 161 tgl 15 0 empty empty empty 17 7 0 10 -262144 -1 -1 1
1;
#X obj 176 225 vline~;
#X obj 177 267 *~;
#X obj 79 229 noise~;
#X obj 132 321 *~;
#X msg 176 203 1 5 \, 0 30 5;
#X obj 175 181 metro 100;
#X floatatom 381 138 5 0 0 0 - - -, f 5;
#X obj 361 110 hsl 128 15 1 100 1 0 empty empty empty -2 -8 0 10 -262144
-1 -1 6800 1;
#X obj 358 193 swap 1;
#X obj 358 215 /;
#X obj 272 438 *~;
#X obj 358 342 lop~ 10;
#X obj 358 287 min 1;
#X floatatom 381 319 5 0 0 0 - - -, f 5;
#X obj 266 512 dac~;
#X text 136 122 source signal;
#X text 362 74 distance in meters;
#X text 440 205 inverse distance law;
#X text 446 307 limit and smooth;
#X text 231 13 INVERSE DISTANCE LAW;
#X connect 0 0 6 0;
#X connect 1 0 2 0;
#X connect 1 0 2 1;
#X connect 2 0 4 1;
#X connect 3 0 4 0;
#X connect 4 0 11 0;
#X connect 5 0 1 0;
#X connect 6 0 5 0;
#X connect 8 0 7 0;
#X connect 8 0 9 0;
#X connect 9 0 10 0;
#X connect 9 1 10 1;
#X connect 10 0 13 0;
#X connect 11 0 15 0;
#X connect 11 0 15 1;
#X connect 12 0 11 1;
#X connect 13 0 12 0;
#X connect 13 0 14 0;
