#N canvas 714 216 1091 783 10;
#X text 160 98 distance in meters;
#X obj 832 396 delwrite~ \$0-delay 2000;
#X obj 832 217 metro 1000;
#X obj 832 157 tgl 15 0 empty empty empty 17 7 0 10 -262144 -1 -1 0
1;
#X msg 832 239 1 5 \, 0 100 5;
#X obj 832 261 vline~;
#X obj 832 324 *~;
#X obj 851 298 osc~ 300;
#X obj 833 361 *~ 0.3;
#X floatatom 258 124 5 0 0 0 - - -, f 5;
#X floatatom 360 152 5 0 0 0 - - -, f 5;
#X obj 258 218 vec2/from-polar;
#X msg 373 286 0.1075 0;
#X obj 373 262 loadbang;
#X obj 144 400 vec2/len;
#X obj 392 403 vec2/len;
#X obj 145 430 / 343;
#X obj 145 452 * 1000;
#X floatatom 204 483 5 0 0 0 - - -, f 5;
#X obj 145 598 lop~ 1;
#X obj 145 571 min 2000;
#X obj 393 440 / 343;
#X obj 393 462 * 1000;
#X floatatom 452 493 5 0 0 0 - - -, f 5;
#X obj 393 594 lop~ 1;
#X obj 393 569 min 2000;
#X text 359 97 angle in degree (0=right \, 90=front \, 180=left);
#X obj 145 378 vec2/add;
#X obj 392 381 vec2/sub;
#X obj 363 125 hsl 128 15 180 0 0 0 empty empty empty -2 -8 0 10 -262144
-1 -1 0 1;
#X obj 146 623 delread4~ \$0-delay;
#X obj 393 619 delread4~ \$0-delay;
#X obj 273 736 dac~;
#X text 832 88 source signal;
#X text 476 275 ear distance (21.5 cm);
#X text 515 425 distance to delay time;
#X text 553 582 limit and smooth delay value;
#X text 381 11 ITD (interaural time difference) demo;
#X connect 2 0 4 0;
#X connect 3 0 2 0;
#X connect 4 0 5 0;
#X connect 5 0 6 0;
#X connect 6 0 8 0;
#X connect 7 0 6 1;
#X connect 8 0 1 0;
#X connect 9 0 11 0;
#X connect 10 0 11 1;
#X connect 11 0 27 0;
#X connect 11 0 28 0;
#X connect 12 0 27 1;
#X connect 12 0 28 1;
#X connect 13 0 12 0;
#X connect 14 0 16 0;
#X connect 15 0 21 0;
#X connect 16 0 17 0;
#X connect 17 0 18 0;
#X connect 17 0 20 0;
#X connect 19 0 30 0;
#X connect 20 0 19 0;
#X connect 21 0 22 0;
#X connect 22 0 23 0;
#X connect 22 0 25 0;
#X connect 24 0 31 0;
#X connect 25 0 24 0;
#X connect 27 0 14 0;
#X connect 28 0 15 0;
#X connect 29 0 10 0;
#X connect 30 0 32 0;
#X connect 31 0 32 1;
