#N canvas 728 252 969 683 10;
#X obj 126 144 tgl 15 0 empty empty empty 17 7 0 10 -262144 -1 -1 1
1;
#X obj 126 215 vline~;
#X obj 127 257 *~;
#X obj 29 212 noise~;
#X obj 82 304 *~;
#X msg 126 193 1 5 \, 0 30 5;
#X floatatom 553 153 5 0 0 0 - - -, f 5;
#X obj 533 125 hsl 128 15 1 1000 1 0 empty empty empty -2 -8 0 10 -262144
-1 -1 6200 1;
#X obj 188 635 dac~;
#X text 86 105 source signal;
#X text 534 89 distance in meters;
#X obj 530 240 swap 1;
#X obj 530 262 /;
#X floatatom 552 283 5 0 0 0 - - -, f 5;
#X text 367 14 REVERBERATION;
#X obj 160 530 mix~;
#X obj 243 533 mix~;
#X obj 533 461 hsl 128 15 0 1 0 1 empty empty empty -2 -8 0 10 -262144
-1 -1 8816 1;
#X text 683 468 dry/wet mix;
#X obj 530 316 clip 0 1;
#X obj 530 218 / 10;
#X text 624 240 custom inverse distance to dry/wet mix :;
#X text 645 266 0.3 at 10m or below;
#X text 646 285 move towards 0.7 below 10m;
#X text 647 305 interpolate in between;
#X obj 530 338 lerp 0.9 0.3;
#X obj 125 164 metro 300;
#X obj 225 435 rev3~ 100 75 3000 90;
#X obj 183 317 hsl 128 15 0 1 0 1 empty empty empty -2 -8 0 10 -262144
-1 -1 5800 1;
#X obj 155 357 pan~;
#X text 190 282 pan left/right signal;
#X connect 0 0 26 0;
#X connect 1 0 2 0;
#X connect 1 0 2 1;
#X connect 2 0 4 1;
#X connect 3 0 4 0;
#X connect 4 0 29 0;
#X connect 5 0 1 0;
#X connect 7 0 6 0;
#X connect 7 0 20 0;
#X connect 11 0 12 0;
#X connect 11 1 12 1;
#X connect 12 0 13 0;
#X connect 12 0 19 0;
#X connect 15 0 8 0;
#X connect 16 0 8 1;
#X connect 17 0 16 2;
#X connect 17 0 15 2;
#X connect 19 0 25 0;
#X connect 20 0 11 0;
#X connect 25 0 17 0;
#X connect 26 0 5 0;
#X connect 27 0 15 1;
#X connect 27 1 16 1;
#X connect 28 0 29 1;
#X connect 29 0 27 0;
#X connect 29 0 15 0;
#X connect 29 1 27 1;
#X connect 29 1 16 0;
