#N canvas 661 141 737 661 10;
#X obj 82 208 *~;
#X obj 83 245 *~ 0.3;
#X floatatom 351 169 5 0 0 0 - - -, f 5;
#X obj 354 143 hsl 128 15 -1 1 0 0 empty empty empty -2 -8 0 10 -262144
-1 -1 4700 1;
#X obj 196 582 dac~;
#X text 71 99 source signal;
#X text 342 98 left (-1) \, center (0) \, right (1);
#X obj 144 510 mix~;
#X obj 183 332 lop~ 1500;
#X obj 412 334 norm 1 -1;
#X floatatom 412 356 5 0 0 0 - - -, f 5;
#X floatatom 322 360 5 0 0 0 - - -, f 5;
#X obj 300 333 norm -1 1;
#X obj 235 510 mix~;
#X obj 83 153 noise~;
#X obj 100 180 osc~ 0.3;
#X text 148 23 ILD (interaural level difference) demo;
#X text 327 485 mix direct sound and filtered (head shadowing) signals
;
#X text 326 507 for individual ears \, based on angle;
#X connect 0 0 1 0;
#X connect 1 0 8 0;
#X connect 1 0 7 0;
#X connect 1 0 13 0;
#X connect 2 0 9 0;
#X connect 2 0 12 0;
#X connect 3 0 2 0;
#X connect 7 0 4 0;
#X connect 8 0 7 1;
#X connect 8 0 13 1;
#X connect 9 0 10 0;
#X connect 10 0 13 2;
#X connect 12 0 11 0;
#X connect 12 0 7 2;
#X connect 13 0 4 1;
#X connect 14 0 0 0;
#X connect 15 0 0 1;
