#N canvas 1102 380 515 640 10;
#X obj 168 471 tgl 15 0 empty empty empty 17 7 0 10 -262144 -1 -1 1
1;
#X obj 87 99 sampler1~ samples/music.wav 24000;
#X msg 87 73 loop 0 46 1;
#X obj 87 48 loadbang;
#X obj 87 544 mix~;
#X obj 86 586 dac~;
#X obj 168 501 lop~ 1;
#X obj 188 341 *~;
#X obj 206 255 norm~ -1 1;
#X obj 206 232 osc~ 3;
#X obj 206 277 lerp~ 0.5 1;
#X text 85 18 continuous music as input example;
#X text 193 470 soft mix the two signals;
#X text 5 424 dry signal;
#X text 179 421 wet signal;
#X text 266 155 high frequencies absorbption;
#X text 303 242 sound fluctuation with a light tremolo, f 24;
#X text 353 374 reverberation;
#X obj 188 372 rev2~ 100 90 100 90;
#X obj 188 154 lop~ 300;
#X connect 0 0 6 0;
#X connect 1 0 4 0;
#X connect 1 0 19 0;
#X connect 2 0 1 0;
#X connect 3 0 2 0;
#X connect 4 0 5 0;
#X connect 4 0 5 1;
#X connect 6 0 4 2;
#X connect 7 0 18 0;
#X connect 8 0 10 0;
#X connect 9 0 8 0;
#X connect 10 0 7 1;
#X connect 18 0 4 1;
#X connect 19 0 7 0;
