#N canvas 976 352 808 551 10;
#X obj 533 402 *~;
#X obj 641 331 ad~ 10 300;
#X obj 534 334 *~ 0.2;
#X obj 641 98 bng 15 250 50 0 empty empty empty 17 7 0 10 -262144 -1
-1;
#X obj 533 456 dac~;
#X obj 534 305 tri~;
#X obj 533 172 ad~ 1 300;
#X obj 534 274 +~;
#X obj 534 201 lerp~ 300 1000;
#X obj 270 402 *~;
#X obj 379 337 ad~ 10 300;
#X obj 271 334 *~ 0.2;
#X obj 379 98 bng 15 250 50 0 empty empty empty 17 7 0 10 -262144 -1
-1;
#X obj 270 456 dac~;
#X obj 271 305 tri~;
#X obj 270 172 ad~ 1 300;
#X obj 271 201 lerp~ 300 1000;
#X obj 29 335 *~;
#X obj 98 239 ad~ 10 300;
#X obj 30 267 *~ 0.2;
#X obj 98 92 bng 15 250 50 0 empty empty empty 17 7 0 10 -262144 -1
-1;
#X obj 29 389 dac~;
#X text 6 42 simple amplitude envelop;
#X text 255 41 with a frequency envelop;
#X text 519 41 with a frequency modulation;
#X obj 553 230 osc~ 10;
#X obj 553 252 *~ 150;
#X obj 30 238 tri~ 400;
#X text 305 10 EXAMPLE 2;
#X text 51 11 EXAMPLE 1;
#X text 580 11 EXAMPLE 3;
#X connect 0 0 4 0;
#X connect 0 0 4 1;
#X connect 1 0 0 1;
#X connect 2 0 0 0;
#X connect 3 0 1 0;
#X connect 3 0 6 0;
#X connect 5 0 2 0;
#X connect 6 0 8 0;
#X connect 7 0 5 0;
#X connect 8 0 7 0;
#X connect 9 0 13 0;
#X connect 9 0 13 1;
#X connect 10 0 9 1;
#X connect 11 0 9 0;
#X connect 12 0 10 0;
#X connect 12 0 15 0;
#X connect 14 0 11 0;
#X connect 15 0 16 0;
#X connect 16 0 14 0;
#X connect 17 0 21 0;
#X connect 17 0 21 1;
#X connect 18 0 17 1;
#X connect 19 0 17 0;
#X connect 20 0 18 0;
#X connect 25 0 26 0;
#X connect 26 0 7 1;
#X connect 27 0 19 0;
