#N canvas 735 401 886 570 10;
#X obj 113 117 loadbang;
#X obj 413 116 loadbang;
#X obj 113 185 sampler1~ samples/crows.wav 24000;
#X obj 413 184 sampler1~ samples/crows.wav 24000;
#X obj 402 388 mix~;
#X obj 534 300 hsl 128 15 0 1 0 0 empty empty empty -2 -8 0 10 -262144
-1 -1 12300 1;
#X obj 402 445 dac~;
#X msg 113 149 loop 0 11 1;
#X msg 413 148 loop 0 11 0.5;
#X text 414 52 second sound : loop at half pitch;
#X text 69 52 first sound : loop at normal pitch;
#X text 528 271 Mix both;
#X connect 0 0 7 0;
#X connect 1 0 8 0;
#X connect 2 0 4 0;
#X connect 3 0 4 1;
#X connect 4 0 6 0;
#X connect 4 0 6 1;
#X connect 5 0 4 2;
#X connect 7 0 2 0;
#X connect 8 0 3 0;
