#N canvas 918 156 600 775 10;
#X obj 134 110 vec3;
#X text 105 23 Fake camera position;
#X obj 222 231 vec3/sub;
#X msg 366 96 0 0 0;
#X obj 366 74 loadbang;
#X obj 222 253 vec3/len;
#X floatatom 280 287 5 0 0 0 - - -, f 5;
#X msg 69 55 1 0 1;
#X msg 134 55 10 0 10;
#X msg 217 56 100 0 100;
#X text 365 23 Fake chest position at 0 \, 0 \, 0;
#X text 334 287 distance from camera to chest;
#X obj 222 525 norm~ -1 1;
#X obj 222 574 sin~;
#X obj 222 310 norm 1 100;
#X obj 222 332 clip 0 1;
#X obj 222 596 *~ 0.2;
#X obj 223 706 dac~;
#X obj 222 366 sqrt;
#X floatatom 157 256 5 0 0 0 - - -, f 5;
#X floatatom 277 397 5 0 0 0 - - -, f 5;
#X obj 222 499 sqr~;
#X obj 222 473 lerp 10 1;
#X obj 222 547 lerp~ 200 400;
#X text 325 470 detector sound :;
#X text 355 486 10 Hz when closed;
#X text 363 501 1 Hz when far;
#X text 330 398 detection factor;
#X text 38 254 debug distance;
#X obj 315 609 tgl 15 0 empty empty empty 17 7 0 10 -262144 -1 -1 0
1;
#X obj 223 665 *~;
#X obj 315 629 lop~ 10;
#X text 338 607 smooth toggle detector;
#X connect 0 0 2 0;
#X connect 2 0 5 0;
#X connect 3 0 2 1;
#X connect 4 0 3 0;
#X connect 5 0 6 0;
#X connect 5 0 14 0;
#X connect 7 0 0 0;
#X connect 8 0 0 0;
#X connect 9 0 0 0;
#X connect 12 0 23 0;
#X connect 13 0 16 0;
#X connect 14 0 15 0;
#X connect 15 0 18 0;
#X connect 16 0 30 0;
#X connect 18 0 20 0;
#X connect 18 0 22 0;
#X connect 19 0 14 0;
#X connect 21 0 12 0;
#X connect 22 0 21 0;
#X connect 23 0 13 0;
#X connect 29 0 31 0;
#X connect 30 0 17 0;
#X connect 30 0 17 1;
#X connect 31 0 30 1;
