#N canvas 498 384 646 403 10;
#X obj 140 21 inlet phase;
#X obj 24 368 outlet~;
#X obj 140 51 bang;
#X obj 25 17 inlet~;
#X msg 140 76 0;
#X obj 44 39 sig~ \$1;
#X obj 25 63 +~;
#X obj 24 234 tabosc4~ \$0-table;
#X obj 470 208 s \$0-table;
#X obj 283 27 inlet;
#X obj 283 49 list prepend sinesum 512;
#X obj 283 71 list trim;
#X obj 162 163 array min \$0-table;
#X obj 283 117 t b b a;
#X obj 306 210 array max \$0-table;
#X obj 162 193 abs;
#X obj 162 259 max;
#X obj 25 327 /~ 1;
#X obj 468 251 table \$0-table 515;
#X connect 0 0 2 0;
#X connect 2 0 4 0;
#X connect 3 0 6 0;
#X connect 4 0 7 1;
#X connect 5 0 6 1;
#X connect 6 0 7 0;
#X connect 7 0 17 0;
#X connect 9 0 10 0;
#X connect 10 0 11 0;
#X connect 11 0 13 0;
#X connect 12 0 15 0;
#X connect 13 0 12 0;
#X connect 13 1 14 0;
#X connect 13 2 8 0;
#X connect 14 0 16 1;
#X connect 15 0 16 0;
#X connect 16 0 17 1;
#X connect 17 0 1 0;
