#N canvas 817 232 635 471 10;
#X obj 115 265 oscilloscope;
#X obj 521 294 dac~;
#X obj 521 263 *~ 0;
#X obj 546 234 tgl 15 0 empty empty empty 17 7 0 10 -262144 -1 -1 0
1;
#X obj 114 200 har~ 200;
#X msg 179 52 0.5 0.4 0.3 0.2 0.1 0.05;
#X msg 260 133 0.1 0.2 0.3 0.4 0.5;
#X msg 226 95 0.5 0.2 0.3 0.5;
#X connect 2 0 1 0;
#X connect 2 0 1 1;
#X connect 3 0 2 1;
#X connect 4 0 0 0;
#X connect 4 0 2 0;
#X connect 5 0 4 2;
#X connect 6 0 4 2;
#X connect 7 0 4 2;
