#N canvas 670 123 742 944 10;
#X obj 461 78 math-help;
#X obj 546 108 vec3-help;
#X text 50 28 PD vanilla Built-in objects;
#X text 428 30 Hands on VR provided library;
#X obj 101 489 osc~;
#X obj 61 712 vline~;
#X obj 485 230 math~-help;
#X obj 426 391 oscilloscope-help;
#X obj 426 421 capture-help;
#X obj 434 309 sampler1~-help;
#X obj 434 329 sampler2~-help;
#X obj 425 549 tri~-help;
#X obj 425 489 sin~-help;
#X obj 425 529 saw~-help;
#X obj 425 509 sqr~-help;
#X obj 98 528 phasor~;
#X obj 96 608 tabosc4~;
#X text 289 455 GENERATORS;
#X text 299 364 VISUALIZER;
#X text 299 284 SAMPLERS;
#X obj 62 683 line~;
#X text 289 655 ENVELOPS;
#X obj 432 693 ad~-help;
#X obj 432 716 asd~-help;
#X obj 83 309 readsf~;
#X obj 83 336 soundfiler;
#X text 289 755 FILTERS;
#X obj 80 793 lop~;
#X obj 123 794 bp~;
#X obj 159 794 hip~;
#X obj 199 795 vcf~;
#X obj 97 569 noise~;
#X obj 425 589 vnz~-help;
#X obj 425 569 rnd~-help;
#X obj 64 77 t;
#X obj 110 75 route;
#X obj 165 77 select;
#X text 309 54 MESSAGE UTILITY;
#X text 291 206 AUDIO UTILITY;
#X obj 64 105 moses;
#X obj 118 103 random;
#X obj 183 103 metro;
#X obj 461 154 vmetro-help;
#X obj 63 128 loadbang;
#X obj 136 128 bang;
#X obj 186 129 pack;
#X obj 230 129 unpack;
#X obj 229 77 r;
#X obj 425 609 har~-help;
#X obj 66 155 +;
#X obj 104 154 -;
#X obj 152 156 *;
#X obj 195 157 /;
#X obj 68 228 +~;
#X obj 108 230 -~;
#X obj 146 229 *~;
#X obj 189 226 /~;
#X obj 246 157 min;
#X obj 290 158 max;
#X obj 549 154 delay-min-help;
#X obj 461 108 vec2-help;
#X text 290 834 AUDIO DELAY;
#X obj 101 865 delread~;
#X obj 27 865 delwrite~;
#X obj 170 865 delread4~;
#X obj 42 901 rev1~;
#X obj 111 902 rev2~;
#X obj 181 902 rev3~;
