#N canvas 853 505 450 300 10;
#X obj 90 59 inlet t;
#X obj 179 56 inlet min;
#X obj 284 58 inlet max;
#X obj 90 111 swap 1;
#X obj 90 135 -;
#X obj 187 249 +;
#X obj 187 271 outlet;
#X obj 111 186 * \$1;
#X obj 267 179 * \$2;
#X obj 90 85 t f f;
#X obj 177 100 t b f;
#X obj 272 111 t b b f;
#X connect 0 0 9 0;
#X connect 1 0 10 0;
#X connect 2 0 11 0;
#X connect 3 0 4 0;
#X connect 3 1 4 1;
#X connect 4 0 7 0;
#X connect 5 0 6 0;
#X connect 7 0 5 0;
#X connect 8 0 5 1;
#X connect 9 0 3 0;
#X connect 9 1 8 0;
#X connect 10 0 7 0;
#X connect 10 1 7 1;
#X connect 11 0 5 0;
#X connect 11 1 8 0;
#X connect 11 2 8 1;
