#N canvas 456 490 450 300 10;
#X obj 183 40 inlet min;
#X obj 269 40 inlet max;
#X obj 95 41 inlet~ t;
#X obj 94 186 *~;
#X obj 93 221 +~;
#X obj 93 249 outlet~;
#X obj 191 171 -;
#X obj 188 67 t b f;
#X obj 288 75 loadbang;
#X obj 288 97 t b b;
#X obj 320 143 f \$1;
#X obj 272 129 f \$2;
#X connect 0 0 4 1;
#X connect 0 0 7 0;
#X connect 1 0 6 0;
#X connect 2 0 3 0;
#X connect 3 0 4 0;
#X connect 4 0 5 0;
#X connect 6 0 3 1;
#X connect 7 0 6 0;
#X connect 7 1 6 1;
#X connect 8 0 9 0;
#X connect 9 0 11 0;
#X connect 9 1 10 0;
#X connect 10 0 4 1;
#X connect 10 0 6 1;
#X connect 11 0 6 0;
