#N canvas 459 380 450 408 10;
#X obj 33 54 inlet t;
#X obj 126 55 inlet min;
#X obj 210 54 inlet max;
#X obj 97 370 outlet;
#X obj 97 331 /;
#X obj 283 123 loadbang;
#X obj 283 145 t b b;
#X obj 195 226 f \$2;
#X obj 269 225 f \$1;
#X obj 225 272 -;
#X obj 126 116 t b b f;
#X obj 200 119 t b f;
#X obj 98 223 - \$1;
#X connect 0 0 12 0;
#X connect 1 0 10 0;
#X connect 2 0 11 0;
#X connect 4 0 3 0;
#X connect 5 0 6 0;
#X connect 6 0 7 0;
#X connect 6 1 8 0;
#X connect 7 0 9 0;
#X connect 8 0 9 1;
#X connect 9 0 4 1;
#X connect 10 0 12 0;
#X connect 10 1 7 0;
#X connect 10 2 8 0;
#X connect 10 2 12 1;
#X connect 11 0 12 0;
#X connect 11 1 7 0;
#X connect 12 0 4 0;
