#N canvas 665 222 568 506 10;
#X obj 139 361 sampler1~ foots;
#X obj 139 434 dac~;
#X msg 111 140 play 2.122 2.5 1;
#X obj 323 39 hsl 128 15 0 10 0 0 empty empty empty -2 -8 0 10 -262144
-1 -1 0 1;
#X floatatom 320 68 5 0 0 0 - - -, f 5;
#X obj 320 105 vmetro;
#X obj 320 127 random 1000;
#X obj 320 171 - 1;
#X obj 320 149 / 500;
#X obj 320 193 * 0.2;
#X obj 320 215 + 1;
#X msg 320 245 play 2.122 2.5 \$1;
#X obj 32 54 loadbang;
#N canvas 475 437 395 449 network 0;
#X msg 25 113 listen 3000;
#X msg 58 150 listen 0;
#X obj 25 86 loadbang;
#X text 144 151 <- Stop listeneing;
#X text 142 113 <- Start listeneing on port 3000;
#X text 24 17 This is the default gdx-pd remote configuration.;
#X text 24 34 All server/client are automatically started;
#X obj 25 226 oscparse;
#X obj 25 253 list trim;
#X obj 25 303 list split 1;
#X obj 25 371 list;
#X obj 25 335 t b s;
#X obj 32 395 send;
#X obj 25 200 netreceive -b -u;
#X obj 25 277 route send;
#X connect 0 0 13 0;
#X connect 1 0 13 0;
#X connect 2 0 0 0;
#X connect 7 0 8 0;
#X connect 8 0 14 0;
#X connect 9 0 11 0;
#X connect 9 1 10 1;
#X connect 10 0 12 0;
#X connect 11 0 10 0;
#X connect 11 1 12 1;
#X connect 13 0 7 0;
#X connect 14 0 9 0;
#X restore 11 14 pd network;
#X msg 32 99 load samples/foots-mono.wav 48000;
#N canvas 65 81 450 300 walking 0;
#X obj 172 41 r move;
#X obj 172 63 list trim;
#X obj 172 85 route walking;
#X obj 172 159 outlet;
#X msg 231 122 0;
#X connect 0 0 1 0;
#X connect 1 0 2 0;
#X connect 2 0 3 0;
#X connect 2 1 4 0;
#X connect 4 0 3 0;
#X restore 217 10 pd walking;
#X floatatom 217 32 5 0 0 0 - - -, f 5;
#X obj 217 55 / 2.5;
#X connect 0 0 1 0;
#X connect 0 0 1 1;
#X connect 2 0 0 0;
#X connect 3 0 4 0;
#X connect 4 0 5 0;
#X connect 5 0 6 0;
#X connect 6 0 8 0;
#X connect 7 0 9 0;
#X connect 8 0 7 0;
#X connect 9 0 10 0;
#X connect 10 0 11 0;
#X connect 11 0 0 0;
#X connect 12 0 14 0;
#X connect 14 0 0 0;
#X connect 15 0 16 0;
#X connect 16 0 17 0;
#X connect 17 0 5 0;
