#N canvas 472 186 1262 827 10;
#X obj 534 169 vec3;
#X msg 694 86 -1219 0 2306;
#X obj 694 54 loadbang;
#X obj 641 172 vec3/sub;
#X obj 641 207 vec3/len;
#X text 812 77 initialize house position;
#X text 788 188 compute distance from camera;
#X msg 342 398 stop;
#X obj 331 426 sampler2~ samples/music.wav 24000;
#X msg 331 368 loop 0 40 1;
#X obj 382 773 *~ 0.5;
#X obj 382 751 clip~ -1 1;
#X obj 382 718 lop~ 20000;
#X obj 642 373 swap 1;
#X obj 642 395 /;
#X obj 642 322 t f f;
#X obj 642 344 *;
#X obj 641 276 / 10;
#X obj 641 298 max 1;
#X obj 758 511 lerp 100 20000;
#X obj 382 659 mix~;
#X msg 409 488 50;
#X obj 409 466 loadbang;
#X obj 382 691 *~ 1;
#X obj 687 510 lerp 0 1;
#X obj 599 512 lerp 1 0.2;
#N canvas 475 437 395 449 network 0;
#X msg 25 113 listen 3000;
#X msg 58 150 listen 0;
#X obj 25 86 loadbang;
#X text 144 151 <- Stop listeneing;
#X text 142 113 <- Start listeneing on port 3000;
#X text 24 17 This is the default gdx-pd remote configuration.;
#X text 24 34 All server/client are automatically started;
#X obj 25 226 oscparse;
#X obj 25 253 list trim;
#X obj 25 303 list split 1;
#X obj 25 371 list;
#X obj 25 335 t b s;
#X obj 32 395 send;
#X obj 25 200 netreceive -b -u;
#X obj 25 277 route send;
#X connect 0 0 13 0;
#X connect 1 0 13 0;
#X connect 2 0 0 0;
#X connect 7 0 8 0;
#X connect 8 0 14 0;
#X connect 9 0 11 0;
#X connect 9 1 10 1;
#X connect 10 0 12 0;
#X connect 11 0 10 0;
#X connect 11 1 12 1;
#X connect 13 0 7 0;
#X connect 14 0 9 0;
#X restore 13 15 pd network;
#N canvas 1030 266 450 300 camera 0;
#X obj 152 47 r camera;
#X obj 152 69 unpack f f f f f f f f f;
#X obj 75 145 pack f f f;
#X obj 189 146 pack f f f;
#X obj 309 145 pack f f f;
#X obj 31 239 outlet position;
#X obj 300 245 outlet position;
#X obj 193 212 outlet direction;
#X connect 0 0 1 0;
#X connect 1 0 2 0;
#X connect 1 1 2 1;
#X connect 1 2 2 2;
#X connect 1 3 3 0;
#X connect 1 4 3 1;
#X connect 1 5 3 2;
#X connect 1 6 4 0;
#X connect 1 7 4 1;
#X connect 1 8 4 2;
#X connect 2 0 5 0;
#X connect 3 0 7 0;
#X restore 534 98 pd camera;
#X obj 331 340 loadbang;
#X obj 393 514 rev1~;
#X text 812 330 map to a distance factor;
#X obj 382 799 dac~;
#X text 900 512 apply to reverb mix \, falloff and filter;
#X text 74 393 loop music at startup;
#X text 38 654 mix both original music and reverb;
#X text 38 682 attenuate from distance;
#X text 39 710 apply a low pass filter;
#X text 541 776 finally clip and apply output gain;
#X connect 1 0 3 1;
#X connect 2 0 1 0;
#X connect 3 0 4 0;
#X connect 4 0 17 0;
#X connect 7 0 8 0;
#X connect 8 0 20 0;
#X connect 8 0 29 0;
#X connect 9 0 8 0;
#X connect 10 0 31 0;
#X connect 10 0 31 1;
#X connect 11 0 10 0;
#X connect 12 0 11 0;
#X connect 13 0 14 0;
#X connect 13 1 14 1;
#X connect 14 0 19 0;
#X connect 14 0 24 0;
#X connect 14 0 25 0;
#X connect 15 0 16 0;
#X connect 15 1 16 1;
#X connect 16 0 13 0;
#X connect 17 0 18 0;
#X connect 18 0 15 0;
#X connect 19 0 12 1;
#X connect 20 0 23 0;
#X connect 21 0 29 1;
#X connect 22 0 21 0;
#X connect 23 0 12 0;
#X connect 24 0 23 1;
#X connect 25 0 20 2;
#X connect 27 0 0 0;
#X connect 27 0 3 0;
#X connect 28 0 9 0;
#X connect 29 0 20 1;
