#N canvas 487 356 581 549 10;
#N canvas 475 437 395 449 network 0;
#X msg 25 113 listen 3000;
#X msg 58 150 listen 0;
#X obj 25 86 loadbang;
#X text 144 151 <- Stop listeneing;
#X text 142 113 <- Start listeneing on port 3000;
#X text 24 17 This is the default gdx-pd remote configuration.;
#X text 24 34 All server/client are automatically started;
#X obj 25 226 oscparse;
#X obj 25 253 list trim;
#X obj 25 303 list split 1;
#X obj 25 371 list;
#X obj 25 335 t b s;
#X obj 32 395 send;
#X obj 25 200 netreceive -b -u;
#X obj 25 277 route send;
#X connect 0 0 13 0;
#X connect 1 0 13 0;
#X connect 2 0 0 0;
#X connect 7 0 8 0;
#X connect 8 0 14 0;
#X connect 9 0 11 0;
#X connect 9 1 10 1;
#X connect 10 0 12 0;
#X connect 11 0 10 0;
#X connect 11 1 12 1;
#X connect 13 0 7 0;
#X connect 14 0 9 0;
#X restore 11 14 pd network;
#X obj 220 42 r chest;
#X obj 220 64 route 0 1 2;
#X obj 192 499 dac~;
#X obj 192 454 *~ 0.1;
#X floatatom 360 219 5 0 0 0 - - -, f 5;
#X obj 48 182 chest-emitter;
#X obj 336 219 tgl 15 0 empty empty empty 17 7 0 10 -262144 -1 -1 0
1;
#X floatatom 230 220 5 0 0 0 - - -, f 5;
#X obj 206 220 tgl 15 0 empty empty empty 17 7 0 10 -262144 -1 -1 1
1;
#X floatatom 115 220 5 0 0 0 - - -, f 5;
#X obj 91 220 tgl 15 0 empty empty empty 17 7 0 10 -262144 -1 -1 1
1;
#X obj 291 182 chest-emitter;
#X obj 167 184 chest-emitter;
#X connect 1 0 2 0;
#X connect 2 0 6 0;
#X connect 2 1 13 0;
#X connect 2 2 12 0;
#X connect 4 0 3 0;
#X connect 4 0 3 1;
#X connect 6 0 4 0;
#X connect 6 1 11 0;
#X connect 6 2 10 0;
#X connect 12 0 4 0;
#X connect 12 1 7 0;
#X connect 12 2 5 0;
#X connect 13 0 4 0;
#X connect 13 1 9 0;
#X connect 13 2 8 0;
