#N canvas 487 356 581 549 10;
#N canvas 475 437 395 449 network 0;
#X msg 25 113 listen 3000;
#X msg 58 150 listen 0;
#X obj 25 86 loadbang;
#X text 144 151 <- Stop listeneing;
#X text 142 113 <- Start listeneing on port 3000;
#X text 24 17 This is the default gdx-pd remote configuration.;
#X text 24 34 All server/client are automatically started;
#X obj 25 226 oscparse;
#X obj 25 253 list trim;
#X obj 25 303 list split 1;
#X obj 25 371 list;
#X obj 25 335 t b s;
#X obj 32 395 send;
#X obj 25 200 netreceive -b -u;
#X obj 25 277 route send;
#X connect 0 0 13 0;
#X connect 1 0 13 0;
#X connect 2 0 0 0;
#X connect 7 0 8 0;
#X connect 8 0 14 0;
#X connect 9 0 11 0;
#X connect 9 1 10 1;
#X connect 10 0 12 0;
#X connect 11 0 10 0;
#X connect 11 1 12 1;
#X connect 13 0 7 0;
#X connect 14 0 9 0;
#X restore 11 14 pd network;
#X obj 220 42 r chest;
#X obj 220 64 route 0 1 2;
#X obj 220 86 unpack f f f f f;
#X obj 241 135 pack f f f;
#X obj 283 177 vec3;
#N canvas 1030 266 450 300 camera 1;
#X obj 152 46 r camera;
#X obj 152 68 unpack f f f f f f f f f;
#X obj 75 144 pack f f f;
#X obj 189 145 pack f f f;
#X obj 309 144 pack f f f;
#X obj 31 238 outlet position;
#X obj 193 211 outlet direction;
#X obj 323 227 outlet up;
#X connect 0 0 1 0;
#X connect 1 0 2 0;
#X connect 1 1 2 1;
#X connect 1 2 2 2;
#X connect 1 3 3 0;
#X connect 1 4 3 1;
#X connect 1 5 3 2;
#X connect 1 6 4 0;
#X connect 1 7 4 1;
#X connect 1 8 4 2;
#X connect 2 0 5 0;
#X connect 3 0 6 0;
#X connect 4 0 7 0;
#X restore 344 258 pd camera;
#X obj 242 303 vec3/sub;
#X obj 242 357 vec3/dot;
#X obj 242 325 vec3/nor;
#X floatatom 271 389 5 0 0 0 - - -, f 5;
#N canvas 449 437 450 457 detector-sound 0;
#X obj 226 28 inlet;
#X obj 226 50 clip 0 1;
#X obj 84 138 pow 2;
#X obj 84 182 sig~;
#X obj 84 204 saw~;
#X obj 84 342 *~;
#X obj 84 386 outlet~;
#X obj 226 196 sig~;
#X obj 84 160 lerp 50 400;
#X obj 84 302 *~;
#X obj 129 226 +~ 1;
#X obj 129 251 /~ 2;
#X obj 129 204 sqr~ 4;
#X connect 0 0 1 0;
#X connect 1 0 2 0;
#X connect 1 0 7 0;
#X connect 2 0 8 0;
#X connect 3 0 4 0;
#X connect 4 0 9 0;
#X connect 5 0 6 0;
#X connect 7 0 5 1;
#X connect 8 0 3 0;
#X connect 9 0 5 0;
#X connect 10 0 11 0;
#X connect 11 0 9 1;
#X connect 12 0 10 0;
#X restore 192 432 pd detector-sound;
#X obj 192 499 dac~;
#X obj 192 454 *~ 0.1;
#X connect 1 0 2 0;
#X connect 2 0 3 0;
#X connect 3 1 4 0;
#X connect 3 2 4 1;
#X connect 3 3 4 2;
#X connect 4 0 5 0;
#X connect 4 0 7 0;
#X connect 6 0 7 1;
#X connect 6 1 8 1;
#X connect 7 0 9 0;
#X connect 8 0 10 0;
#X connect 8 0 11 0;
#X connect 9 0 8 0;
#X connect 11 0 13 0;
#X connect 13 0 12 0;
#X connect 13 0 12 1;
