#N canvas 99 223 1801 403 10;
#N canvas 475 437 395 449 network 0;
#X msg 25 113 listen 3000;
#X msg 58 150 listen 0;
#X obj 25 86 loadbang;
#X text 144 151 <- Stop listeneing;
#X text 142 113 <- Start listeneing on port 3000;
#X text 24 17 This is the default gdx-pd remote configuration.;
#X text 24 34 All server/client are automatically started;
#X obj 25 226 oscparse;
#X obj 25 253 list trim;
#X obj 25 303 list split 1;
#X obj 25 371 list;
#X obj 25 335 t b s;
#X obj 32 395 send;
#X obj 25 200 netreceive -b -u;
#X obj 25 277 route send;
#X connect 0 0 13 0;
#X connect 1 0 13 0;
#X connect 2 0 0 0;
#X connect 7 0 8 0;
#X connect 8 0 14 0;
#X connect 9 0 11 0;
#X connect 9 1 10 1;
#X connect 10 0 12 0;
#X connect 11 0 10 0;
#X connect 11 1 12 1;
#X connect 13 0 7 0;
#X connect 14 0 9 0;
#X restore 24 61 pd network;
#X obj 206 76 r map;
#X obj 206 104 tgl 15 0 empty empty empty 17 7 0 10 -262144 -1 -1 0
1;
#X obj 347 105 r chest;
#X obj 347 168 unpack f f f f f;
#X floatatom 331 202 5 0 0 0 - - -, f 5;
#X obj 374 202 pack f f f;
#X floatatom 456 204 5 0 0 0 - - -, f 5;
#X obj 796 80 r forest;
#X obj 864 80 r water;
#X obj 1298 92 r move;
#X obj 947 82 r altitude;
#X floatatom 947 104 5 0 0 0 - - -, f 5;
#X floatatom 864 102 5 0 0 0 - - -, f 5;
#X floatatom 796 102 5 0 0 0 - - -, f 5;
#X floatatom 1298 188 5 0 0 0 - - -, f 5;
#X floatatom 1364 187 5 0 0 0 - - -, f 5;
#X floatatom 1431 186 5 0 0 0 - - -, f 5;
#X obj 1278 188 bng 15 250 50 0 empty empty empty 17 7 0 10 -262144
-1 -1;
#X obj 1344 188 bng 15 250 50 0 empty empty empty 17 7 0 10 -262144
-1 -1;
#X obj 1413 188 bng 15 250 50 0 empty empty empty 17 7 0 10 -262144
-1 -1;
#X obj 374 224 vec3;
#X obj 1298 136 route walking swimming diving;
#X text 202 22 Map toggle : 0 off 1 on, f 12;
#X text 12 19 network listener do not remove, f 16;
#X text 540 17 camera : position (x \, y \, z) \, direction (x \, y
\, z) \, head-up (x \, y \, z), f 20;
#X text 933 14 ground altitude at camera position relative to water
level (in meters), f 18;
#X text 1303 22 player status (walking \, swimming or diving) and velocity
(in meters per seconds), f 25;
#X obj 561 107 camera-vectors;
#X obj 520 153 vec3;
#X obj 600 153 vec3;
#X obj 680 153 vec3;
#X obj 1298 114 list trim;
#X obj 347 136 route 0 1 2;
#X obj 39 132 help;
#X text 351 19 3 nearset chest : index (0 \, 1 \, 2) \, seed (0 to
1) \, position (x \, y \, z) \, occlusion (0 to 1), f 19;
#X obj 1573 104 r animal;
#X obj 1573 171 route 0 1 2;
#X obj 1573 246 pack f f f;
#X obj 1573 272 vec3;
#X floatatom 1668 247 5 0 0 0 - - -, f 5;
#X obj 1573 148 route LAND WATER AIR;
#X obj 1573 126 list trim;
#X obj 1573 219 unpack f f f f;
#X text 1551 15 nearset animals (max 3 per type) : type (LAND WATER
AIR) \, index (0 \, 1 \, 2) \, state (IDLE STROLL FLEE) \, position
(x \, y \, z) \, occlusion (0 or 1), f 28;
#X obj 1573 194 route STROLL FLEE IDLE;
#X text 13 108 Library help;
#X msg 1112 73 -1219 0 2306;
#X obj 1112 41 loadbang;
#X text 1109 15 House static position;
#X obj 1112 95 vec3;
#X text 815 16 surrounding forest and water sensor (0 to 1), f 13
;
#X connect 1 0 2 0;
#X connect 3 0 33 0;
#X connect 4 0 5 0;
#X connect 4 1 6 0;
#X connect 4 2 6 1;
#X connect 4 3 6 2;
#X connect 4 4 7 0;
#X connect 6 0 21 0;
#X connect 8 0 14 0;
#X connect 9 0 13 0;
#X connect 10 0 32 0;
#X connect 11 0 12 0;
#X connect 22 0 15 0;
#X connect 22 0 18 0;
#X connect 22 1 16 0;
#X connect 22 1 19 0;
#X connect 22 2 17 0;
#X connect 22 2 20 0;
#X connect 28 0 29 0;
#X connect 28 1 30 0;
#X connect 28 2 31 0;
#X connect 32 0 22 0;
#X connect 33 0 4 0;
#X connect 36 0 42 0;
#X connect 37 0 45 0;
#X connect 38 0 39 0;
#X connect 41 0 37 0;
#X connect 42 0 41 0;
#X connect 43 0 38 0;
#X connect 43 1 38 1;
#X connect 43 2 38 2;
#X connect 43 3 40 0;
#X connect 45 0 43 0;
#X connect 47 0 50 0;
#X connect 48 0 47 0;
