#N canvas 108 211 1765 403 10;
#N canvas 475 437 395 449 network 0;
#X msg 25 113 listen 3000;
#X msg 58 150 listen 0;
#X obj 25 86 loadbang;
#X text 144 151 <- Stop listeneing;
#X text 142 113 <- Start listeneing on port 3000;
#X text 24 17 This is the default gdx-pd remote configuration.;
#X text 24 34 All server/client are automatically started;
#X obj 25 226 oscparse;
#X obj 25 253 list trim;
#X obj 25 303 list split 1;
#X obj 25 371 list;
#X obj 25 335 t b s;
#X obj 32 395 send;
#X obj 25 200 netreceive -b -u;
#X obj 25 277 route send;
#X connect 0 0 13 0;
#X connect 1 0 13 0;
#X connect 2 0 0 0;
#X connect 7 0 8 0;
#X connect 8 0 14 0;
#X connect 9 0 11 0;
#X connect 9 1 10 1;
#X connect 10 0 12 0;
#X connect 11 0 10 0;
#X connect 11 1 12 1;
#X connect 13 0 7 0;
#X connect 14 0 9 0;
#X restore 24 61 pd network;
#X obj 206 76 r map;
#X obj 206 104 tgl 15 0 empty empty empty 17 7 0 10 -262144 -1 -1 0
1;
#X obj 427 111 r chest;
#X obj 427 174 unpack f f f f f;
#X floatatom 394 209 5 0 0 0 - - -, f 5;
#X obj 454 208 pack f f f;
#X floatatom 555 210 5 0 0 0 - - -, f 5;
#X obj 968 101 r forest;
#X obj 1140 102 r water;
#X obj 1517 99 r move;
#X obj 1303 97 r altitude;
#X floatatom 1303 119 5 0 0 0 - - -, f 5;
#X floatatom 1140 124 5 0 0 0 - - -, f 5;
#X floatatom 968 123 5 0 0 0 - - -, f 5;
#X floatatom 1517 195 5 0 0 0 - - -, f 5;
#X floatatom 1583 194 5 0 0 0 - - -, f 5;
#X floatatom 1650 193 5 0 0 0 - - -, f 5;
#X obj 1497 195 bng 15 250 50 0 empty empty empty 17 7 0 10 -262144
-1 -1;
#X obj 1563 195 bng 15 250 50 0 empty empty empty 17 7 0 10 -262144
-1 -1;
#X obj 1632 195 bng 15 250 50 0 empty empty empty 17 7 0 10 -262144
-1 -1;
#X obj 454 230 vec3;
#X obj 1517 143 route walking swimming diving;
#X text 202 22 Map toggle : 0 off 1 on, f 12;
#X text 12 19 network listener do not remove, f 16;
#X text 407 19 3 nearset chest : seed (0 to 1) \, index (0 \, 1 \,
2) \, position (x \, y \, z) \, occlusion (0 to 1), f 19;
#X text 706 27 camera : position (x \, y \, z) \, direction (x \, y
\, z) \, head-up (x \, y \, z), f 19;
#X text 953 33 surrounding forest sensor (0 to 1), f 13;
#X text 1108 35 surrounding water sensor (0 to 1), f 13;
#X text 1289 29 ground altitude at camera position relative to water
level (in meters), f 18;
#X text 1522 29 player status (walking \, swimming or diving) and velocity
(in meters per seconds), f 25;
#X obj 727 117 camera-vectors;
#X obj 686 163 vec3;
#X obj 766 163 vec3;
#X obj 846 163 vec3;
#X obj 1517 121 list trim;
#X obj 427 142 route 0 1 2;
#X connect 1 0 2 0;
#X connect 3 0 36 0;
#X connect 4 0 5 0;
#X connect 4 1 6 0;
#X connect 4 2 6 1;
#X connect 4 3 6 2;
#X connect 4 4 7 0;
#X connect 6 0 21 0;
#X connect 8 0 14 0;
#X connect 9 0 13 0;
#X connect 10 0 35 0;
#X connect 11 0 12 0;
#X connect 22 0 15 0;
#X connect 22 0 18 0;
#X connect 22 1 16 0;
#X connect 22 1 19 0;
#X connect 22 2 17 0;
#X connect 22 2 20 0;
#X connect 31 0 32 0;
#X connect 31 1 33 0;
#X connect 31 2 34 0;
#X connect 35 0 22 0;
#X connect 36 0 4 0;
