#N canvas 665 222 568 657 10;
#X obj 139 587 dac~;
#X obj 267 99 random 1000;
#X obj 32 54 loadbang;
#N canvas 475 437 395 449 network 0;
#X msg 25 113 listen 3000;
#X msg 58 150 listen 0;
#X obj 25 86 loadbang;
#X text 144 151 <- Stop listeneing;
#X text 142 113 <- Start listeneing on port 3000;
#X text 24 17 This is the default gdx-pd remote configuration.;
#X text 24 34 All server/client are automatically started;
#X obj 25 226 oscparse;
#X obj 25 253 list trim;
#X obj 25 303 list split 1;
#X obj 25 371 list;
#X obj 25 335 t b s;
#X obj 32 395 send;
#X obj 25 200 netreceive -b -u;
#X obj 25 277 route send;
#X connect 0 0 13 0;
#X connect 1 0 13 0;
#X connect 2 0 0 0;
#X connect 7 0 8 0;
#X connect 8 0 14 0;
#X connect 9 0 11 0;
#X connect 9 1 10 1;
#X connect 10 0 12 0;
#X connect 11 0 10 0;
#X connect 11 1 12 1;
#X connect 13 0 7 0;
#X connect 14 0 9 0;
#X restore 11 14 pd network;
#X msg 32 99 load samples/crows.wav 24000;
#X obj 267 121 / 1000;
#X obj 267 187 lerp 0.9 1.1;
#X obj 268 77 vmetro 0.1;
#X obj 139 361 sampler2~ crows;
#X msg 267 217 play 1 11 \$1;
#X msg 111 140 play 1 10 1;
#N canvas 375 428 450 300 water-fx 0;
#X obj 144 41 inlet~;
#X obj 143 205 outlet~;
#X obj 233 37 inlet;
#X obj 233 103 lop~ 2;
#X obj 233 81 lerp 8000 400;
#X obj 144 147 vcf~ 1;
#X connect 0 0 5 0;
#X connect 2 0 4 0;
#X connect 3 0 5 1;
#X connect 4 0 3 0;
#X connect 5 0 1 0;
#X restore 139 532 pd water-fx;
#X obj 176 498 tgl 15 0 empty empty empty 17 7 0 10 -262144 -1 -1 0
1;
#N canvas 65 81 450 300 diving 0;
#X obj 179 59 r move;
#X obj 179 81 list trim;
#X obj 179 103 route diving;
#X msg 179 125 1;
#X msg 260 125 0;
#X obj 179 188 outlet;
#X connect 0 0 1 0;
#X connect 1 0 2 0;
#X connect 2 0 3 0;
#X connect 2 1 4 0;
#X connect 3 0 5 0;
#X connect 4 0 5 0;
#X restore 307 396 pd diving;
#X obj 332 443 tgl 15 0 empty empty empty 17 7 0 10 -262144 -1 -1 0
1;
#X connect 1 0 5 0;
#X connect 2 0 4 0;
#X connect 4 0 8 0;
#X connect 5 0 6 0;
#X connect 6 0 9 0;
#X connect 7 0 1 0;
#X connect 8 0 11 0;
#X connect 9 0 8 0;
#X connect 10 0 8 0;
#X connect 11 0 0 0;
#X connect 11 0 0 1;
#X connect 12 0 11 1;
#X connect 13 0 11 1;
#X connect 13 0 14 0;
