#N canvas 377 400 450 300 10;
#X obj 81 37 inlet~;
#X obj 79 257 outlet~;
#X obj 232 256 outlet~;
#X obj 250 40 inlet~;
#X obj 231 161 *~;
#X obj 98 144 *~ -1;
#X obj 98 166 +~ 1;
#X obj 250 66 clip~ 0 1;
#X obj 80 189 *~;
#X connect 0 0 4 0;
#X connect 0 0 8 0;
#X connect 3 0 7 0;
#X connect 4 0 2 0;
#X connect 5 0 6 0;
#X connect 6 0 8 1;
#X connect 7 0 5 0;
#X connect 7 0 4 1;
#X connect 8 0 1 0;
