#N canvas 1034 320 711 365 10;
#X obj 47 333 dac~;
#X msg 80 111 play 0 7.75 1;
#X msg 94 138 play 0 7.75 2;
#X msg 107 167 play 2.122 2.5 1;
#X msg 114 197 play 2.122 2.5 0.5;
#X obj 46 248 sampler1~ foots-m;
#X text 302 62 <- first load the sound file : path to the file and
its original sample rate (here 48kHz), f 46;
#X text 221 247 <- the sampler take a name in order to define an array
with the same name. names must be unique., f 51;
#X text 282 135 <- then play a part of this sample : start point in
seconds \, end point in seconds and playback speed (1 is normal speed)
, f 43;
#X text 238 11 MONO SAMPLER;
#X msg 46 65 load samples/foots-mono.wav 48000;
#X connect 1 0 5 0;
#X connect 2 0 5 0;
#X connect 3 0 5 0;
#X connect 4 0 5 0;
#X connect 5 0 0 0;
#X connect 5 0 0 1;
#X connect 10 0 5 0;
