#N canvas 428 159 579 840 10;
#X obj 209 9 inlet;
#X obj 97 169 loadbang;
#X obj 44 314 soundfiler;
#X obj 79 76 unpack s f;
#X obj 267 569 line~;
#X obj 265 767 outlet~;
#X obj 264 191 unpack f f f;
#X obj 267 520 pack f f f;
#X msg 267 542 \$1 \, \$2 \$3;
#X obj 404 463 * 1000;
#X obj 235 289 t f f;
#X obj 303 240 t f f;
#X obj 344 360 -;
#X obj 344 386 * -1;
#X obj 404 663 vline~;
#X obj 266 729 *~;
#X msg 404 622 1 5 \, 0 5 \$1;
#X obj 229 367 *;
#X obj 302 295 *;
#X obj 404 438 /;
#X obj 209 31 route load play;
#X obj 39 365 array define \$1;
#X msg 44 281 read -resize \$1 \$2;
#X obj 97 195 symbol \$1;
#X obj 44 254 pack s s;
#X obj 267 665 tabread4~ \$1;
#X connect 0 0 20 0;
#X connect 1 0 23 0;
#X connect 3 0 24 0;
#X connect 3 1 17 1;
#X connect 3 1 18 1;
#X connect 4 0 25 0;
#X connect 6 0 10 0;
#X connect 6 1 11 0;
#X connect 6 2 19 1;
#X connect 7 0 8 0;
#X connect 8 0 4 0;
#X connect 9 0 7 2;
#X connect 9 0 16 0;
#X connect 10 0 17 0;
#X connect 10 1 12 0;
#X connect 11 0 18 0;
#X connect 11 1 12 1;
#X connect 12 0 13 0;
#X connect 13 0 19 0;
#X connect 14 0 15 1;
#X connect 15 0 5 0;
#X connect 16 0 14 0;
#X connect 17 0 7 0;
#X connect 18 0 7 1;
#X connect 19 0 9 0;
#X connect 20 0 3 0;
#X connect 20 1 6 0;
#X connect 22 0 2 0;
#X connect 23 0 24 1;
#X connect 24 0 22 0;
#X connect 25 0 15 0;
