#N canvas 178 193 1001 840 10;
#X obj 305 15 inlet;
#X obj 16 107 soundfiler;
#X obj 684 745 outlet~;
#X obj 15 142 array define table-\$0;
#X obj 16 15 loadbang;
#X obj 16 47 list append \$1 table-\$0;
#X obj 675 436 phasor~;
#X obj 740 180 unpack f f f;
#X obj 725 229 -;
#X obj 725 251 * -1;
#X obj 653 306 swap 1;
#X obj 653 338 /;
#X obj 675 366 *;
#X obj 784 535 +~ 0;
#X obj 746 495 *~ 0;
#X obj 809 266 * \$2;
#X obj 771 347 * \$2;
#X obj 785 625 tabread4~ table-\$0;
#X msg 721 413 0;
#X obj 683 703 *~;
#X msg 577 461 1 5;
#X msg 304 460 0 5;
#X obj 385 138 t a a;
#X obj 675 396 t f b;
#X obj 385 191 unpack f f f;
#X obj 385 213 -;
#X obj 385 235 * -1;
#X obj 576 623 vline~;
#X obj 385 257 * 1000;
#X msg 448 459 0 5 \$1;
#X obj 448 293 /;
#X obj 305 66 route stop play loop;
#X msg 16 75 read -resize -maxsize 3e+07 \$1 \$2;
#X text 95 107 hard limit at 30 MegaSamples;
#X connect 0 0 31 0;
#X connect 4 0 5 0;
#X connect 5 0 32 0;
#X connect 6 0 14 0;
#X connect 7 0 8 0;
#X connect 7 0 15 0;
#X connect 7 1 8 1;
#X connect 7 2 12 1;
#X connect 8 0 9 0;
#X connect 9 0 10 0;
#X connect 9 0 16 0;
#X connect 10 0 11 0;
#X connect 10 1 11 1;
#X connect 11 0 12 0;
#X connect 12 0 23 0;
#X connect 13 0 17 0;
#X connect 14 0 13 0;
#X connect 15 0 13 1;
#X connect 16 0 14 1;
#X connect 17 0 19 1;
#X connect 18 0 6 1;
#X connect 19 0 2 0;
#X connect 20 0 27 0;
#X connect 21 0 27 0;
#X connect 22 0 24 0;
#X connect 22 1 7 0;
#X connect 23 0 18 0;
#X connect 23 0 6 0;
#X connect 23 0 20 0;
#X connect 24 0 25 0;
#X connect 24 1 25 1;
#X connect 24 2 30 1;
#X connect 25 0 26 0;
#X connect 26 0 28 0;
#X connect 27 0 19 0;
#X connect 28 0 30 0;
#X connect 29 0 27 0;
#X connect 30 0 29 0;
#X connect 31 0 21 0;
#X connect 31 1 22 0;
#X connect 31 2 7 0;
#X connect 32 0 1 0;
