#N canvas 428 159 1121 840 10;
#X obj 305 15 inlet;
#X obj 16 107 soundfiler;
#X obj 576 770 outlet~;
#X obj 16 15 loadbang;
#X obj 675 436 phasor~;
#X obj 740 180 unpack f f f;
#X obj 725 229 -;
#X obj 725 251 * -1;
#X obj 653 306 swap 1;
#X obj 653 338 /;
#X obj 675 366 *;
#X obj 784 535 +~ 0;
#X obj 746 495 *~ 0;
#X obj 809 266 * \$2;
#X obj 771 347 * \$2;
#X msg 721 413 0;
#X obj 575 728 *~;
#X msg 577 461 1 5;
#X msg 304 460 0 5;
#X obj 385 138 t a a;
#X obj 675 396 t f b;
#X obj 385 191 unpack f f f;
#X obj 385 213 -;
#X obj 385 235 * -1;
#X obj 576 623 vline~;
#X obj 385 257 * 1000;
#X msg 448 459 0 5 \$1;
#X obj 448 293 /;
#X obj 305 66 route stop play loop;
#X obj 691 623 tabread4~ table-\$0-l;
#X obj 849 625 tabread4~ table-\$0-r;
#X obj 765 727 *~;
#X obj 765 769 outlet~;
#X obj 16 47 list append \$1 table-\$0-l table-\$0-r;
#X obj 15 142 array define table-\$0-l;
#X obj 15 172 array define table-\$0-r;
#X msg 16 75 read -resize \$1 \$2 \$3;
#X connect 0 0 28 0;
#X connect 3 0 33 0;
#X connect 4 0 12 0;
#X connect 5 0 6 0;
#X connect 5 0 13 0;
#X connect 5 1 6 1;
#X connect 5 2 10 1;
#X connect 6 0 7 0;
#X connect 7 0 8 0;
#X connect 7 0 14 0;
#X connect 8 0 9 0;
#X connect 8 1 9 1;
#X connect 9 0 10 0;
#X connect 10 0 20 0;
#X connect 11 0 29 0;
#X connect 11 0 30 0;
#X connect 12 0 11 0;
#X connect 13 0 11 1;
#X connect 14 0 12 1;
#X connect 15 0 4 1;
#X connect 16 0 2 0;
#X connect 17 0 24 0;
#X connect 18 0 24 0;
#X connect 19 0 21 0;
#X connect 19 1 5 0;
#X connect 20 0 15 0;
#X connect 20 0 4 0;
#X connect 20 0 17 0;
#X connect 21 0 22 0;
#X connect 21 1 22 1;
#X connect 21 2 27 1;
#X connect 22 0 23 0;
#X connect 23 0 25 0;
#X connect 24 0 16 0;
#X connect 24 0 31 0;
#X connect 25 0 27 0;
#X connect 26 0 24 0;
#X connect 27 0 26 0;
#X connect 28 0 18 0;
#X connect 28 1 19 0;
#X connect 28 2 5 0;
#X connect 29 0 16 1;
#X connect 30 0 31 1;
#X connect 31 0 32 0;
#X connect 33 0 36 0;
#X connect 36 0 1 0;
