#N canvas 381 320 634 365 10;
#X obj 51 330 dac~;
#X obj 50 245 sampler2~ foots;
#X msg 50 62 load foots-stereo.wav 24000;
#X msg 78 104 play 0 6.6 1;
#X msg 92 131 play 0 6.6 2;
#X msg 105 160 play 2.177 2.343 1;
#X msg 112 190 play 2.177 2.343 0.5;
#X text 280 59 <- first load the sound file : path to the file and
its original sample rate (here 48kHz), f 46;
#X text 286 132 <- then play a part of this sample : start point in
seconds \, end point in seconds and playback speed (1 is normal speed)
, f 43;
#X text 225 244 <- the sampler take a name in order to define 2 arrays
(arrays names are suffixed by -l and -r for left and right channels).
names must be unique., f 51;
#X text 238 11 STEREO SAMPLER;
#X connect 1 0 0 0;
#X connect 1 1 0 1;
#X connect 2 0 1 0;
#X connect 3 0 1 0;
#X connect 4 0 1 0;
#X connect 5 0 1 0;
#X connect 6 0 1 0;
