#N canvas 434 151 579 840 10;
#X obj 261 13 inlet;
#X msg 277 284 read -resize \$1 \$2 \$3;
#X obj 311 155 symbol \$1-l;
#X obj 277 257 pack s s s;
#X obj 311 129 loadbang;
#X obj 344 227 symbol \$1-r;
#X obj 277 317 soundfiler;
#X obj 27 19 array define \$1-l;
#X obj 27 39 array define \$1-r;
#X obj 344 205 loadbang;
#X obj 312 79 unpack s f;
#X obj 479 399 /;
#X obj 94 585 line~;
#X obj 25 699 tabread4~ \$1-l;
#X obj 157 698 tabread4~ \$1-r;
#X obj 22 801 outlet~;
#X obj 155 800 outlet~;
#X obj 94 399 unpack f f f;
#X obj 92 507 *;
#X obj 145 494 *;
#X obj 205 486 *;
#X obj 94 536 pack f f f;
#X msg 94 558 \$1 \, \$2 \$3;
#X obj 205 508 * 1000;
#X obj 261 35 route play load;
#X obj 47 448 t f f;
#X obj 109 430 t f f;
#X obj 174 510 -;
#X obj 181 582 *;
#X obj 174 532 * -1;
#X obj 228 426 swap 1;
#X obj 228 448 /;
#X obj 330 703 vline~;
#X obj 156 765 *~;
#X obj 23 763 *~;
#X msg 330 662 1 5 \, 0 5 \$1;
#X connect 0 0 24 0;
#X connect 1 0 6 0;
#X connect 2 0 3 1;
#X connect 3 0 1 0;
#X connect 4 0 2 0;
#X connect 5 0 3 2;
#X connect 6 0 11 0;
#X connect 6 0 18 1;
#X connect 6 0 19 1;
#X connect 9 0 5 0;
#X connect 10 0 3 0;
#X connect 10 1 11 1;
#X connect 11 0 20 1;
#X connect 12 0 13 0;
#X connect 12 0 14 0;
#X connect 13 0 34 0;
#X connect 14 0 33 0;
#X connect 17 0 25 0;
#X connect 17 1 26 0;
#X connect 17 2 30 0;
#X connect 18 0 21 0;
#X connect 19 0 21 1;
#X connect 20 0 23 0;
#X connect 21 0 22 0;
#X connect 22 0 12 0;
#X connect 23 0 28 1;
#X connect 24 0 17 0;
#X connect 24 1 10 0;
#X connect 25 0 18 0;
#X connect 25 1 27 0;
#X connect 26 0 19 0;
#X connect 26 1 27 1;
#X connect 27 0 29 0;
#X connect 28 0 21 2;
#X connect 28 0 35 0;
#X connect 29 0 28 0;
#X connect 30 0 31 0;
#X connect 30 1 31 1;
#X connect 31 0 20 0;
#X connect 32 0 33 1;
#X connect 32 0 34 1;
#X connect 33 0 16 0;
#X connect 34 0 15 0;
#X connect 35 0 32 0;
