#N canvas 537 332 450 300 10;
#X obj 245 84 inlet phase;
#X obj 199 237 outlet~;
#X obj 245 114 bang;
#X obj 200 23 inlet~;
#X msg 245 139 0;
#X obj 219 45 sig~ \$1;
#X obj 200 69 +~;
#X obj 199 164 osc~;
#X connect 0 0 2 0;
#X connect 2 0 4 0;
#X connect 3 0 6 0;
#X connect 4 0 7 1;
#X connect 5 0 6 1;
#X connect 6 0 7 0;
#X connect 7 0 1 0;
