#N canvas 768 471 669 409 10;
#X obj 255 35 r map;
#X obj 251 360 dac~;
#N canvas 475 437 395 449 network 0;
#X msg 25 113 listen 3000;
#X msg 58 150 listen 0;
#X obj 25 86 loadbang;
#X text 144 151 <- Stop listeneing;
#X text 142 113 <- Start listeneing on port 3000;
#X text 24 17 This is the default gdx-pd remote configuration.;
#X text 24 34 All server/client are automatically started;
#X obj 25 226 oscparse;
#X obj 25 253 list trim;
#X obj 25 303 list split 1;
#X obj 25 371 list;
#X obj 25 335 t b s;
#X obj 32 395 send;
#X obj 25 200 netreceive -b -u;
#X obj 25 277 route send;
#X connect 0 0 13 0;
#X connect 1 0 13 0;
#X connect 2 0 0 0;
#X connect 7 0 8 0;
#X connect 8 0 14 0;
#X connect 9 0 11 0;
#X connect 9 1 10 1;
#X connect 10 0 12 0;
#X connect 11 0 10 0;
#X connect 11 1 12 1;
#X connect 13 0 7 0;
#X connect 14 0 9 0;
#X restore 11 14 pd network;
#X obj 255 77 select 0 1;
#N canvas 472 419 403 251 off 0;
#X obj 151 34 inlet;
#X obj 151 78 vline~;
#X obj 151 150 *~;
#X obj 151 172 outlet~;
#X obj 169 117 osc~ 240;
#X msg 151 56 1 100 \, 0 50 100;
#X connect 0 0 5 0;
#X connect 1 0 2 0;
#X connect 2 0 3 0;
#X connect 4 0 2 1;
#X connect 5 0 1 0;
#X restore 183 169 pd off;
#N canvas 436 465 373 243 on 0;
#X obj 151 34 inlet;
#X obj 151 78 vline~;
#X obj 151 150 *~;
#X obj 151 172 outlet~;
#X obj 169 117 osc~ 440;
#X msg 151 56 1 10 \, 0 200 10;
#X connect 0 0 5 0;
#X connect 1 0 2 0;
#X connect 2 0 3 0;
#X connect 4 0 2 1;
#X connect 5 0 1 0;
#X restore 310 170 pd on;
#X obj 350 123 bng 15 250 50 0 empty empty empty 17 7 0 10 -262144
-1 -1;
#X obj 250 261 *~ 0.3;
#X obj 148 119 bng 15 250 50 0 empty empty empty 17 7 0 10 -262144
-1 -1;
#X connect 0 0 3 0;
#X connect 3 0 4 0;
#X connect 3 0 5 0;
#X connect 4 0 7 0;
#X connect 5 0 7 0;
#X connect 6 0 5 0;
#X connect 7 0 1 0;
#X connect 7 0 1 1;
#X connect 8 0 4 0;
