#N canvas 537 332 450 405 10;
#X obj 245 84 inlet phase;
#X obj 199 347 outlet~;
#X obj 245 114 bang;
#X obj 200 23 inlet~;
#X msg 245 139 0;
#X obj 199 164 phasor~;
#X obj 219 45 sig~ \$1;
#X obj 200 69 +~;
#X obj 198 252 abs~;
#X obj 198 204 -~ 0.5;
#X obj 198 284 *~ 4;
#X obj 198 306 -~ 1;
#X connect 0 0 2 0;
#X connect 2 0 4 0;
#X connect 3 0 7 0;
#X connect 4 0 5 1;
#X connect 5 0 9 0;
#X connect 6 0 7 1;
#X connect 7 0 5 0;
#X connect 8 0 10 0;
#X connect 9 0 8 0;
#X connect 10 0 11 0;
#X connect 11 0 1 0;
