#N canvas 557 555 450 369 10;
#X obj 115 105 nbx 6 14 -1e+37 1e+37 0 0 empty empty X -12 8 0 10 -262144
-1 -1 -1.11659e-05 256;
#X obj 115 125 nbx 6 14 -1e+37 1e+37 0 0 empty empty Y -12 8 0 10 -262144
-1 -1 10 256;
#X obj 41 0 inlet;
#X obj 70 206 t b f;
#X obj 116 206 t b f;
#X obj 59 318 outlet;
#X obj 59 281 route 0;
#X msg 199 71 set \$1;
#X msg 253 72 set \$1;
#X obj 6 172 bang;
#X obj 41 22 route bang set;
#X obj 59 60 t b a;
#X obj 232 49 unpack f f;
#X obj 59 259 pack f f f;
#X connect 0 0 3 0;
#X connect 1 0 4 0;
#X connect 2 0 10 0;
#X connect 3 0 13 0;
#X connect 3 1 13 1;
#X connect 4 0 13 0;
#X connect 4 1 13 2;
#X connect 6 0 5 0;
#X connect 7 0 0 0;
#X connect 8 0 1 0;
#X connect 9 0 13 0;
#X connect 10 0 9 0;
#X connect 10 1 12 0;
#X connect 10 2 11 0;
#X connect 11 0 13 0;
#X connect 11 1 12 0;
#X connect 12 0 7 0;
#X connect 12 0 13 1;
#X connect 12 1 8 0;
#X connect 12 1 13 2;
#X connect 13 0 6 0;
#X coords 0 -1 1 1 85 45 2 100 100;
