#N canvas 100 269 1751 491 10;
#X obj 473 20 bng 15 250 50 0 empty empty empty 17 7 0 10 -262144 -1
-1;
#X obj 473 49 t b b;
#X floatatom 242 231 5 0 0 0 - - -, f 5;
#X obj 92 186 print;
#X obj 23 53 bng 15 250 50 0 empty empty empty 17 7 0 10 -262144 -1
-1;
#X floatatom 1290 136 5 0 0 0 - - -, f 5;
#X floatatom 1054 223 5 0 0 0 - - -, f 5;
#X obj 694 72 hsl 128 15 0 1 0 0 empty empty empty -2 -8 0 10 -262144
-1 -1 0 1;
#X floatatom 740 94 5 0 0 0 - - -, f 5;
#X msg 48 12 12 -4;
#X msg 78 64 set 4.2 1.3;
#X obj 242 189 vec2/dot;
#X obj 348 188 vec2/add;
#X obj 455 187 vec2/sub;
#X obj 554 186 vec2/mul;
#X msg 415 98 -1 1;
#X msg 518 96 8 4;
#X obj 821 181 vec2/mix;
#X obj 1054 178 vec2/len;
#X obj 1127 178 vec2/nor;
#X obj 1223 178 vec2/scl 1;
#X floatatom 1429 76 5 0 0 0 - - -, f 5;
#X floatatom 1531 76 5 0 0 0 - - -, f 5;
#X text 1420 26 radius;
#X text 1510 25 angle in degree;
#X obj 1429 217 vec2;
#X obj 1429 142 vec2/from-polar;
#X obj 51 102 vec2;
#X obj 51 244 vec2;
#X obj 348 210 vec2;
#X obj 455 209 vec2;
#X obj 554 208 vec2;
#X obj 821 216 vec2;
#X obj 839 48 vec2;
#X obj 923 46 vec2;
#X obj 1146 45 vec2;
#X obj 1126 222 vec2;
#X obj 1224 214 vec2;
#X connect 0 0 1 0;
#X connect 1 0 15 0;
#X connect 1 1 16 0;
#X connect 4 0 27 0;
#X connect 5 0 20 1;
#X connect 7 0 8 0;
#X connect 7 0 17 0;
#X connect 9 0 27 0;
#X connect 10 0 27 0;
#X connect 11 0 2 0;
#X connect 12 0 29 0;
#X connect 13 0 30 0;
#X connect 14 0 31 0;
#X connect 15 0 11 0;
#X connect 15 0 12 0;
#X connect 15 0 13 0;
#X connect 15 0 14 0;
#X connect 16 0 11 1;
#X connect 16 0 12 1;
#X connect 16 0 13 1;
#X connect 16 0 14 1;
#X connect 17 0 32 0;
#X connect 18 0 6 0;
#X connect 19 0 36 0;
#X connect 20 0 37 0;
#X connect 21 0 26 0;
#X connect 22 0 26 1;
#X connect 26 0 25 0;
#X connect 27 0 3 0;
#X connect 27 0 28 0;
#X connect 33 0 17 1;
#X connect 34 0 17 2;
#X connect 35 0 18 0;
#X connect 35 0 19 0;
#X connect 35 0 20 0;
