#N canvas 118 209 1751 491 10;
#X obj 473 20 bng 15 250 50 0 empty empty empty 17 7 0 10 -262144 -1
-1;
#X obj 473 49 t b b;
#X floatatom 242 231 5 0 0 0 - - -, f 5;
#X msg 518 96 8 4 2;
#X msg 415 98 -1 1 -1;
#X obj 242 189 vec3/dot;
#X obj 64 113 vec3;
#X obj 107 208 print;
#X msg 48 12 12 -4 3.32;
#X msg 77 64 set 4.2 1.3 6.8;
#X obj 23 53 bng 15 250 50 0 empty empty empty 17 7 0 10 -262144 -1
-1;
#X obj 64 279 vec3;
#X obj 348 238 vec3;
#X obj 348 188 vec3/add;
#X obj 455 237 vec3;
#X obj 455 187 vec3/sub;
#X obj 554 233 vec3;
#X obj 554 186 vec3/mul;
#X obj 1223 178 vec3/scl 1;
#X obj 1127 49 vec3;
#X floatatom 1290 136 5 0 0 0 - - -, f 5;
#X obj 1223 221 vec3;
#X floatatom 1054 223 5 0 0 0 - - -, f 5;
#X obj 1054 178 vec3/len;
#X obj 1127 221 vec3;
#X obj 1127 178 vec3/nor;
#X obj 821 181 vec3/mix;
#X obj 934 42 vec3;
#X obj 838 42 vec3;
#X obj 694 72 hsl 128 15 0 1 0 0 empty empty empty -2 -8 0 10 -262144
-1 -1 5800 1;
#X floatatom 740 94 5 0 0 0 - - -, f 5;
#X obj 821 231 vec3;
#X obj 659 235 vec3;
#X obj 1380 284 vec3/dot;
#X obj 1512 287 vec3/dot;
#X obj 1380 306 vec3;
#X obj 1512 309 vec3;
#X obj 1401 49 vec3;
#X obj 1491 49 vec3;
#X obj 1461 171 vec3/crs;
#X obj 1461 194 vec3;
#X obj 1401 122 t a a;
#X obj 1491 122 t b a a;
#X obj 659 188 vec3/crs;
#X text 1336 18 Verify cross product is normal to input vectors;
#X connect 0 0 1 0;
#X connect 1 0 4 0;
#X connect 1 1 3 0;
#X connect 3 0 5 1;
#X connect 3 0 13 1;
#X connect 3 0 15 1;
#X connect 3 0 17 1;
#X connect 3 0 43 1;
#X connect 4 0 5 0;
#X connect 4 0 13 0;
#X connect 4 0 15 0;
#X connect 4 0 17 0;
#X connect 4 0 43 0;
#X connect 5 0 2 0;
#X connect 6 0 7 0;
#X connect 6 0 11 0;
#X connect 8 0 6 0;
#X connect 9 0 6 0;
#X connect 10 0 6 0;
#X connect 13 0 12 0;
#X connect 15 0 14 0;
#X connect 17 0 16 0;
#X connect 18 0 21 0;
#X connect 19 0 18 0;
#X connect 19 0 23 0;
#X connect 19 0 25 0;
#X connect 20 0 18 1;
#X connect 23 0 22 0;
#X connect 25 0 24 0;
#X connect 26 0 31 0;
#X connect 27 0 26 2;
#X connect 28 0 26 1;
#X connect 29 0 26 0;
#X connect 29 0 30 0;
#X connect 33 0 35 0;
#X connect 34 0 36 0;
#X connect 37 0 41 0;
#X connect 38 0 42 0;
#X connect 39 0 40 0;
#X connect 40 0 34 0;
#X connect 40 0 33 0;
#X connect 41 0 39 0;
#X connect 41 1 33 1;
#X connect 42 0 37 0;
#X connect 42 1 39 1;
#X connect 42 2 34 1;
#X connect 43 0 32 0;
