#N canvas 563 547 450 369 10;
#X obj 115 105 nbx 5 14 -1e+37 1e+37 0 0 empty empty X -12 8 0 10 -262144
-1 -1 12 256;
#X obj 115 125 nbx 5 14 -1e+37 1e+37 0 0 empty empty Y -12 8 0 10 -262144
-1 -1 -4 256;
#X obj 115 145 nbx 5 14 -1e+37 1e+37 0 0 empty empty Z -12 8 0 10 -262144
-1 -1 3.32 256;
#X obj 41 0 inlet;
#X obj 59 259 pack f f f f;
#X obj 70 206 t b f;
#X obj 116 206 t b f;
#X obj 168 207 t b f;
#X obj 59 318 outlet;
#X obj 59 281 route 0;
#X obj 232 49 unpack f f f;
#X msg 199 71 set \$1;
#X msg 253 72 set \$1;
#X msg 313 71 set \$1;
#X obj 6 172 bang;
#X obj 41 22 route bang set;
#X obj 59 60 t b a;
#X connect 0 0 5 0;
#X connect 1 0 6 0;
#X connect 2 0 7 0;
#X connect 3 0 15 0;
#X connect 4 0 9 0;
#X connect 5 0 4 0;
#X connect 5 1 4 1;
#X connect 6 0 4 0;
#X connect 6 1 4 2;
#X connect 7 0 4 0;
#X connect 7 1 4 3;
#X connect 9 0 8 0;
#X connect 10 0 11 0;
#X connect 10 0 4 1;
#X connect 10 1 12 0;
#X connect 10 1 4 2;
#X connect 10 2 13 0;
#X connect 10 2 4 3;
#X connect 11 0 0 0;
#X connect 12 0 1 0;
#X connect 13 0 2 0;
#X connect 14 0 4 0;
#X connect 15 0 14 0;
#X connect 15 1 10 0;
#X connect 15 2 16 0;
#X connect 16 0 4 0;
#X connect 16 1 10 0;
#X coords 0 -1 1 1 75 65 2 100 100;
