#N canvas 826 220 635 343 10;
#X obj 108 97 oscilloscope;
#X obj 514 126 dac~;
#X obj 514 95 *~ 0;
#X obj 539 66 tgl 15 0 empty empty empty 17 7 0 10 -262144 -1 -1 0
1;
#X obj 107 32 vnz~ 500;
#X connect 2 0 1 0;
#X connect 2 0 1 1;
#X connect 3 0 2 1;
#X connect 4 0 0 0;
#X connect 4 0 2 0;
