#N canvas 513 364 450 337 10;
#X obj 289 34 inlet phase;
#X obj 240 282 outlet~;
#X obj 289 64 bang;
#X obj 200 23 inlet~;
#X msg 289 89 0;
#X obj 219 45 sig~ \$1;
#X obj 200 69 +~;
#X obj 95 165 noise~;
#X obj 95 187 samphold~;
#X obj 156 146 phasor~;
#X obj 240 234 vcf~ 1;
#X obj 260 162 *~ 0.5;
#X connect 0 0 2 0;
#X connect 2 0 4 0;
#X connect 3 0 6 0;
#X connect 4 0 9 1;
#X connect 5 0 6 1;
#X connect 6 0 9 0;
#X connect 6 0 11 0;
#X connect 7 0 8 0;
#X connect 8 0 10 0;
#X connect 9 0 8 1;
#X connect 10 0 1 0;
#X connect 11 0 10 1;
