#N canvas 808 561 450 300 10;
#X obj 92 49 inlet;
#X obj 242 49 inlet;
#X obj 127 263 outlet;
#X obj 106 145 *;
#X obj 154 146 *;
#X obj 127 222 +;
#X obj 96 89 unpack f f;
#X obj 242 82 unpack f f;
#X connect 0 0 6 0;
#X connect 1 0 7 0;
#X connect 3 0 5 0;
#X connect 4 0 5 1;
#X connect 5 0 2 0;
#X connect 6 0 3 0;
#X connect 6 1 4 0;
#X connect 7 0 3 1;
#X connect 7 1 4 1;
