#N canvas 955 654 393 385 10;
#X obj 98 37 inlet distance;
#X obj 257 35 inlet angle;
#X obj 160 326 outlet vec2;
#X obj 257 59 / 360;
#X obj 257 81 * 6.28319;
#X obj 257 108 t b f;
#X obj 213 217 cos;
#X obj 253 217 sin;
#X obj 154 252 *;
#X obj 213 250 *;
#X obj 127 195 t f f;
#X obj 160 291 pack f f;
#X obj 127 173 f 0;
#X connect 0 0 12 0;
#X connect 1 0 3 0;
#X connect 3 0 4 0;
#X connect 4 0 5 0;
#X connect 5 0 12 0;
#X connect 5 1 7 0;
#X connect 5 1 6 0;
#X connect 6 0 8 1;
#X connect 7 0 9 1;
#X connect 8 0 11 0;
#X connect 9 0 11 1;
#X connect 10 0 8 0;
#X connect 10 1 9 0;
#X connect 11 0 2 0;
#X connect 12 0 10 0;
