#N canvas 435 539 450 300 10;
#X obj 115 25 inlet;
#X obj 227 27 inlet;
#X obj 115 47 route bang;
#X obj 115 131 list;
#X obj 115 69 bang;
#X obj 115 169 outlet;
#X connect 0 0 2 0;
#X connect 1 0 3 1;
#X connect 2 0 4 0;
#X connect 2 1 3 0;
#X connect 3 0 5 0;
#X connect 4 0 3 0;
