#N canvas 511 550 450 410 10;
#X obj 127 31 inlet;
#X obj 202 30 inlet;
#X obj 275 32 inlet;
#X obj 132 349 outlet;
#X obj 132 289 scl;
#X obj 210 278 scl;
#X obj 132 322 add;
#X obj 202 65 t b a;
#X obj 174 151 f;
#X obj 163 193 t f f;
#X obj 149 243 swap 1;
#X obj 149 265 -;
#X obj 132 179 idt;
#X obj 231 204 idt;
#X obj 277 75 t b a;
#X obj 118 119 t b b b;
#X obj 124 66 t b f;
#X connect 0 0 16 0;
#X connect 1 0 7 0;
#X connect 2 0 14 0;
#X connect 4 0 6 0;
#X connect 5 0 6 1;
#X connect 6 0 3 0;
#X connect 7 0 15 0;
#X connect 7 1 12 1;
#X connect 8 0 9 0;
#X connect 9 0 10 0;
#X connect 9 1 5 1;
#X connect 10 0 11 0;
#X connect 10 1 11 1;
#X connect 11 0 4 1;
#X connect 12 0 4 0;
#X connect 13 0 5 0;
#X connect 14 0 15 0;
#X connect 14 1 13 1;
#X connect 15 0 12 0;
#X connect 15 1 13 0;
#X connect 15 2 8 0;
#X connect 16 0 15 0;
#X connect 16 1 8 1;
