#N canvas 424 536 344 237 10;
#X obj 128 25 inlet;
#X obj 128 53 t a a;
#X obj 128 192 outlet;
#X obj 160 92 len;
#X obj 128 167 scl;
#X obj 160 114 swap 1;
#X obj 160 136 /;
#X connect 0 0 1 0;
#X connect 1 0 4 0;
#X connect 1 1 3 0;
#X connect 3 0 5 0;
#X connect 4 0 2 0;
#X connect 5 0 6 0;
#X connect 5 1 6 1;
#X connect 6 0 4 1;
