#N canvas 550 447 450 300 10;
#X obj 259 42 inlet;
#X obj 259 91 f \$1;
#X obj 92 49 inlet;
#X obj 127 263 outlet;
#X obj 106 145 *;
#X obj 154 145 *;
#X obj 189 41 loadbang;
#X obj 96 89 unpack f f;
#X obj 127 191 pack f f;
#X connect 0 0 1 0;
#X connect 1 0 5 1;
#X connect 1 0 4 1;
#X connect 2 0 7 0;
#X connect 4 0 8 0;
#X connect 5 0 8 1;
#X connect 6 0 1 0;
#X connect 7 0 4 0;
#X connect 7 1 5 0;
#X connect 8 0 3 0;
